<?xml version="1.0" encoding="UTF-8" standalone="no"?>
<!DOCTYPE svg PUBLIC "-//W3C//DTD SVG 1.1//EN"
 "http://www.w3.org/Graphics/SVG/1.1/DTD/svg11.dtd">
<!-- Generated by graphviz version 2.47.0 (20210316.0004)
 -->
<!-- Title: dependencies Pages: 1 -->
<svg width="1441pt" height="284pt"
 viewBox="0.00 0.00 1441.00 284.00" xmlns="http://www.w3.org/2000/svg" xmlns:xlink="http://www.w3.org/1999/xlink">
<g id="graph0" class="graph" transform="scale(1 1) rotate(0) translate(4 280)">
<title>dependencies</title>
<polygon fill="white" stroke="transparent" points="-4,4 -4,-280 1437,-280 1437,4 -4,4"/>
<text text-anchor="start" x="695.51" y="-42.4" font-family="Times-12" font-weight="bold" font-size="14.00">Legend</text>
<polygon fill="#ffffb3" stroke="transparent" points="482.5,-10 482.5,-30 502.5,-30 502.5,-10 482.5,-10"/>
<text text-anchor="start" x="506.13" y="-15.4" font-family="Times-12" font-size="14.00"> &#160;Declarations</text>
<polygon fill="#8dd3c7" stroke="transparent" points="595.5,-10 595.5,-30 615.5,-30 615.5,-10 595.5,-10"/>
<text text-anchor="start" x="619.23" y="-15.4" font-family="Times-12" font-size="14.00"> &#160;Module</text>
<polygon fill="#80b1d3" stroke="transparent" points="681.5,-10 681.5,-30 701.5,-30 701.5,-10 681.5,-10"/>
<text text-anchor="start" x="705.28" y="-15.4" font-family="Times-12" font-size="14.00"> &#160;Bootstrap</text>
<polygon fill="#fdb462" stroke="transparent" points="778.5,-10 778.5,-30 798.5,-30 798.5,-10 778.5,-10"/>
<text text-anchor="start" x="802.17" y="-15.4" font-family="Times-12" font-size="14.00"> &#160;Providers</text>
<polygon fill="#fb8072" stroke="transparent" points="874.5,-10 874.5,-30 894.5,-30 894.5,-10 874.5,-10"/>
<text text-anchor="start" x="898.23" y="-15.4" font-family="Times-12" font-size="14.00"> &#160;Exports</text>
<g id="clust1" class="cluster">
<title>cluster_AuthenticationModule</title>
<polygon fill="none" stroke="black" stroke-dasharray="1,5" points="8,-70 8,-268 1425,-268 1425,-70 8,-70"/>
</g>
<g id="clust3" class="cluster">
<title>cluster_AuthenticationModule_imports</title>
<polygon fill="none" stroke="black" points="1315,-78 1315,-130 1417,-130 1417,-78 1315,-78"/>
</g>
<g id="clust4" class="cluster">
<title>cluster_AuthenticationModule_exports</title>
<polygon fill="none" stroke="black" points="653,-208 653,-260 813,-260 813,-208 653,-208"/>
</g>
<g id="clust6" class="cluster">
<title>cluster_AuthenticationModule_providers</title>
<polygon fill="none" stroke="black" points="16,-78 16,-130 1307,-130 1307,-78 16,-78"/>
</g>
<!-- UserModule -->
<g id="node1" class="node">
<title>UserModule</title>
<polygon fill="#8dd3c7" stroke="black" points="1408.98,-122 1405.98,-126 1384.98,-126 1381.98,-122 1323.02,-122 1323.02,-86 1408.98,-86 1408.98,-122"/>
<text text-anchor="middle" x="1366" y="-99.8" font-family="Times,serif" font-size="14.00">UserModule</text>
</g>
<!-- AuthenticationModule -->
<g id="node2" class="node">
<title>AuthenticationModule</title>
<polygon fill="#8dd3c7" stroke="black" points="804.25,-187 801.25,-191 780.25,-191 777.25,-187 661.75,-187 661.75,-151 804.25,-151 804.25,-187"/>
<text text-anchor="middle" x="733" y="-164.8" font-family="Times,serif" font-size="14.00">AuthenticationModule</text>
</g>
<!-- UserModule&#45;&gt;AuthenticationModule -->
<g id="edge1" class="edge">
<title>UserModule&#45;&gt;AuthenticationModule</title>
<path fill="none" stroke="black" d="M1366,-122.29C1366,-144.21 1366,-178 1366,-178 1366,-178 814.38,-178 814.38,-178"/>
<polygon fill="black" stroke="black" points="814.38,-174.5 804.38,-178 814.38,-181.5 814.38,-174.5"/>
</g>
<!-- AuthenticationService  -->
<g id="node3" class="node">
<title>AuthenticationService </title>
<polygon fill="#fb8072" stroke="black" points="805.18,-252 660.82,-252 660.82,-216 805.18,-216 805.18,-252"/>
<text text-anchor="middle" x="733" y="-229.8" font-family="Times,serif" font-size="14.00">AuthenticationService </text>
</g>
<!-- AuthenticationModule&#45;&gt;AuthenticationService  -->
<g id="edge2" class="edge">
<title>AuthenticationModule&#45;&gt;AuthenticationService </title>
<path fill="none" stroke="black" stroke-dasharray="5,2" d="M733,-187.11C733,-187.11 733,-205.99 733,-205.99"/>
<polygon fill="black" stroke="black" points="729.5,-205.99 733,-215.99 736.5,-205.99 729.5,-205.99"/>
</g>
<!-- AccessTokenStrategy -->
<g id="node4" class="node">
<title>AccessTokenStrategy</title>
<ellipse fill="#fdb462" stroke="black" cx="1204" cy="-104" rx="95.46" ry="18"/>
<text text-anchor="middle" x="1204" y="-99.8" font-family="Times,serif" font-size="14.00">AccessTokenStrategy</text>
</g>
<!-- AccessTokenStrategy&#45;&gt;AuthenticationModule -->
<g id="edge3" class="edge">
<title>AccessTokenStrategy&#45;&gt;AuthenticationModule</title>
<path fill="none" stroke="black" d="M1204,-122.11C1204,-141.34 1204,-169 1204,-169 1204,-169 814.28,-169 814.28,-169"/>
<polygon fill="black" stroke="black" points="814.28,-165.5 804.28,-169 814.28,-172.5 814.28,-165.5"/>
</g>
<!-- AuthenticationService -->
<g id="node5" class="node">
<title>AuthenticationService</title>
<ellipse fill="#fdb462" stroke="black" cx="993" cy="-104" rx="97.27" ry="18"/>
<text text-anchor="middle" x="993" y="-99.8" font-family="Times,serif" font-size="14.00">AuthenticationService</text>
</g>
<!-- AuthenticationService&#45;&gt;AuthenticationModule -->
<g id="edge4" class="edge">
<title>AuthenticationService&#45;&gt;AuthenticationModule</title>
<path fill="none" stroke="black" d="M993,-122.03C993,-138.4 993,-160 993,-160 993,-160 814.39,-160 814.39,-160"/>
<polygon fill="black" stroke="black" points="814.39,-156.5 804.39,-160 814.39,-163.5 814.39,-156.5"/>
</g>
<!-- CookieService -->
<g id="node6" class="node">
<title>CookieService</title>
<ellipse fill="#fdb462" stroke="black" cx="810" cy="-104" rx="67.78" ry="18"/>
<text text-anchor="middle" x="810" y="-99.8" font-family="Times,serif" font-size="14.00">CookieService</text>
</g>
<!-- CookieService&#45;&gt;AuthenticationModule -->
<g id="edge5" class="edge">
<title>CookieService&#45;&gt;AuthenticationModule</title>
<path fill="none" stroke="black" d="M773.24,-119.4C773.24,-119.4 773.24,-140.94 773.24,-140.94"/>
<polygon fill="black" stroke="black" points="769.74,-140.94 773.24,-150.94 776.74,-140.94 769.74,-140.94"/>
</g>
<!-- CryptoService -->
<g id="node7" class="node">
<title>CryptoService</title>
<ellipse fill="#fdb462" stroke="black" cx="657" cy="-104" rx="66.63" ry="18"/>
<text text-anchor="middle" x="657" y="-99.8" font-family="Times,serif" font-size="14.00">CryptoService</text>
</g>
<!-- CryptoService&#45;&gt;AuthenticationModule -->
<g id="edge6" class="edge">
<title>CryptoService&#45;&gt;AuthenticationModule</title>
<path fill="none" stroke="black" d="M692.72,-119.4C692.72,-119.4 692.72,-140.94 692.72,-140.94"/>
<polygon fill="black" stroke="black" points="689.22,-140.94 692.72,-150.94 696.22,-140.94 689.22,-140.94"/>
</g>
<!-- DateService -->
<g id="node8" class="node">
<title>DateService</title>
<ellipse fill="#fdb462" stroke="black" cx="514" cy="-104" rx="58.44" ry="18"/>
<text text-anchor="middle" x="514" y="-99.8" font-family="Times,serif" font-size="14.00">DateService</text>
</g>
<!-- DateService&#45;&gt;AuthenticationModule -->
<g id="edge7" class="edge">
<title>DateService&#45;&gt;AuthenticationModule</title>
<path fill="none" stroke="black" d="M514,-122.03C514,-138.4 514,-160 514,-160 514,-160 651.59,-160 651.59,-160"/>
<polygon fill="black" stroke="black" points="651.59,-163.5 661.59,-160 651.59,-156.5 651.59,-163.5"/>
</g>
<!-- RefreshTokenStrategy -->
<g id="node9" class="node">
<title>RefreshTokenStrategy</title>
<ellipse fill="#fdb462" stroke="black" cx="340" cy="-104" rx="97.83" ry="18"/>
<text text-anchor="middle" x="340" y="-99.8" font-family="Times,serif" font-size="14.00">RefreshTokenStrategy</text>
</g>
<!-- RefreshTokenStrategy&#45;&gt;AuthenticationModule -->
<g id="edge8" class="edge">
<title>RefreshTokenStrategy&#45;&gt;AuthenticationModule</title>
<path fill="none" stroke="black" d="M340,-122.11C340,-141.34 340,-169 340,-169 340,-169 651.37,-169 651.37,-169"/>
<polygon fill="black" stroke="black" points="651.37,-172.5 661.37,-169 651.37,-165.5 651.37,-172.5"/>
</g>
<!-- TokenWhitelistService -->
<g id="node10" class="node">
<title>TokenWhitelistService</title>
<ellipse fill="#fdb462" stroke="black" cx="124" cy="-104" rx="100.14" ry="18"/>
<text text-anchor="middle" x="124" y="-99.8" font-family="Times,serif" font-size="14.00">TokenWhitelistService</text>
</g>
<!-- TokenWhitelistService&#45;&gt;AuthenticationModule -->
<g id="edge9" class="edge">
<title>TokenWhitelistService&#45;&gt;AuthenticationModule</title>
<path fill="none" stroke="black" d="M124,-122.29C124,-144.21 124,-178 124,-178 124,-178 651.65,-178 651.65,-178"/>
<polygon fill="black" stroke="black" points="651.65,-181.5 661.65,-178 651.65,-174.5 651.65,-181.5"/>
</g>
</g>
</svg>
