<?xml version="1.0" encoding="UTF-8" standalone="no"?>
<!DOCTYPE svg PUBLIC "-//W3C//DTD SVG 1.1//EN"
 "http://www.w3.org/Graphics/SVG/1.1/DTD/svg11.dtd">
<!-- Generated by graphviz version 2.47.0 (20210316.0004)
 -->
<!-- Title: dependencies Pages: 1 -->
<svg width="1287pt" height="284pt"
 viewBox="0.00 0.00 1287.00 284.00" xmlns="http://www.w3.org/2000/svg" xmlns:xlink="http://www.w3.org/1999/xlink">
<g id="graph0" class="graph" transform="scale(1 1) rotate(0) translate(4 280)">
<title>dependencies</title>
<polygon fill="white" stroke="transparent" points="-4,4 -4,-280 1283,-280 1283,4 -4,4"/>
<text text-anchor="start" x="618.51" y="-42.4" font-family="Times-12" font-weight="bold" font-size="14.00">Legend</text>
<polygon fill="#ffffb3" stroke="transparent" points="405.5,-10 405.5,-30 425.5,-30 425.5,-10 405.5,-10"/>
<text text-anchor="start" x="429.13" y="-15.4" font-family="Times-12" font-size="14.00"> &#160;Declarations</text>
<polygon fill="#8dd3c7" stroke="transparent" points="518.5,-10 518.5,-30 538.5,-30 538.5,-10 518.5,-10"/>
<text text-anchor="start" x="542.23" y="-15.4" font-family="Times-12" font-size="14.00"> &#160;Module</text>
<polygon fill="#80b1d3" stroke="transparent" points="604.5,-10 604.5,-30 624.5,-30 624.5,-10 604.5,-10"/>
<text text-anchor="start" x="628.28" y="-15.4" font-family="Times-12" font-size="14.00"> &#160;Bootstrap</text>
<polygon fill="#fdb462" stroke="transparent" points="701.5,-10 701.5,-30 721.5,-30 721.5,-10 701.5,-10"/>
<text text-anchor="start" x="725.17" y="-15.4" font-family="Times-12" font-size="14.00"> &#160;Providers</text>
<polygon fill="#fb8072" stroke="transparent" points="797.5,-10 797.5,-30 817.5,-30 817.5,-10 797.5,-10"/>
<text text-anchor="start" x="821.23" y="-15.4" font-family="Times-12" font-size="14.00"> &#160;Exports</text>
<g id="clust1" class="cluster">
<title>cluster_AuthenticationModule</title>
<polygon fill="none" stroke="black" stroke-dasharray="1,5" points="8,-70 8,-268 1271,-268 1271,-70 8,-70"/>
</g>
<g id="clust6" class="cluster">
<title>cluster_AuthenticationModule_providers</title>
<polygon fill="none" stroke="black" points="126,-78 126,-130 1263,-130 1263,-78 126,-78"/>
</g>
<g id="clust3" class="cluster">
<title>cluster_AuthenticationModule_imports</title>
<polygon fill="none" stroke="black" points="16,-78 16,-130 118,-130 118,-78 16,-78"/>
</g>
<g id="clust4" class="cluster">
<title>cluster_AuthenticationModule_exports</title>
<polygon fill="none" stroke="black" points="544,-208 544,-260 704,-260 704,-208 544,-208"/>
</g>
<!-- UserModule -->
<g id="node1" class="node">
<title>UserModule</title>
<polygon fill="#8dd3c7" stroke="black" points="109.98,-122 106.98,-126 85.98,-126 82.98,-122 24.02,-122 24.02,-86 109.98,-86 109.98,-122"/>
<text text-anchor="middle" x="67" y="-99.8" font-family="Times,serif" font-size="14.00">UserModule</text>
</g>
<!-- AuthenticationModule -->
<g id="node2" class="node">
<title>AuthenticationModule</title>
<polygon fill="#8dd3c7" stroke="black" points="695.25,-187 692.25,-191 671.25,-191 668.25,-187 552.75,-187 552.75,-151 695.25,-151 695.25,-187"/>
<text text-anchor="middle" x="624" y="-164.8" font-family="Times,serif" font-size="14.00">AuthenticationModule</text>
</g>
<!-- UserModule&#45;&gt;AuthenticationModule -->
<g id="edge1" class="edge">
<title>UserModule&#45;&gt;AuthenticationModule</title>
<path fill="none" stroke="black" d="M67,-122.28C67,-143.32 67,-175 67,-175 67,-175 542.61,-175 542.61,-175"/>
<polygon fill="black" stroke="black" points="542.61,-178.5 552.61,-175 542.61,-171.5 542.61,-178.5"/>
</g>
<!-- AuthenticationService  -->
<g id="node3" class="node">
<title>AuthenticationService </title>
<polygon fill="#fb8072" stroke="black" points="696.18,-252 551.82,-252 551.82,-216 696.18,-216 696.18,-252"/>
<text text-anchor="middle" x="624" y="-229.8" font-family="Times,serif" font-size="14.00">AuthenticationService </text>
</g>
<!-- AuthenticationModule&#45;&gt;AuthenticationService  -->
<g id="edge2" class="edge">
<title>AuthenticationModule&#45;&gt;AuthenticationService </title>
<path fill="none" stroke="black" stroke-dasharray="5,2" d="M624,-187.11C624,-187.11 624,-205.99 624,-205.99"/>
<polygon fill="black" stroke="black" points="620.5,-205.99 624,-215.99 627.5,-205.99 620.5,-205.99"/>
</g>
<!-- AccessTokenStrategy -->
<g id="node4" class="node">
<title>AccessTokenStrategy</title>
<ellipse fill="#fdb462" stroke="black" cx="1160" cy="-104" rx="95.46" ry="18"/>
<text text-anchor="middle" x="1160" y="-99.8" font-family="Times,serif" font-size="14.00">AccessTokenStrategy</text>
</g>
<!-- AccessTokenStrategy&#45;&gt;AuthenticationModule -->
<g id="edge3" class="edge">
<title>AccessTokenStrategy&#45;&gt;AuthenticationModule</title>
<path fill="none" stroke="black" d="M1160,-122.28C1160,-143.32 1160,-175 1160,-175 1160,-175 705.45,-175 705.45,-175"/>
<polygon fill="black" stroke="black" points="705.45,-171.5 695.45,-175 705.45,-178.5 705.45,-171.5"/>
</g>
<!-- AuthenticationService -->
<g id="node5" class="node">
<title>AuthenticationService</title>
<ellipse fill="#fdb462" stroke="black" cx="949" cy="-104" rx="97.27" ry="18"/>
<text text-anchor="middle" x="949" y="-99.8" font-family="Times,serif" font-size="14.00">AuthenticationService</text>
</g>
<!-- AuthenticationService&#45;&gt;AuthenticationModule -->
<g id="edge4" class="edge">
<title>AuthenticationService&#45;&gt;AuthenticationModule</title>
<path fill="none" stroke="black" d="M949,-122.02C949,-139.37 949,-163 949,-163 949,-163 705.32,-163 705.32,-163"/>
<polygon fill="black" stroke="black" points="705.32,-159.5 695.32,-163 705.32,-166.5 705.32,-159.5"/>
</g>
<!-- CryptoService -->
<g id="node6" class="node">
<title>CryptoService</title>
<ellipse fill="#fdb462" stroke="black" cx="767" cy="-104" rx="66.63" ry="18"/>
<text text-anchor="middle" x="767" y="-99.8" font-family="Times,serif" font-size="14.00">CryptoService</text>
</g>
<!-- CryptoService&#45;&gt;AuthenticationModule -->
<g id="edge5" class="edge">
<title>CryptoService&#45;&gt;AuthenticationModule</title>
<path fill="none" stroke="black" d="M700,-104C693.24,-104 688.8,-104 688.8,-104 688.8,-104 688.8,-140.89 688.8,-140.89"/>
<polygon fill="black" stroke="black" points="685.3,-140.89 688.8,-150.89 692.3,-140.89 685.3,-140.89"/>
</g>
<!-- DateService -->
<g id="node7" class="node">
<title>DateService</title>
<ellipse fill="#fdb462" stroke="black" cx="624" cy="-104" rx="58.44" ry="18"/>
<text text-anchor="middle" x="624" y="-99.8" font-family="Times,serif" font-size="14.00">DateService</text>
</g>
<!-- DateService&#45;&gt;AuthenticationModule -->
<g id="edge6" class="edge">
<title>DateService&#45;&gt;AuthenticationModule</title>
<path fill="none" stroke="black" d="M624,-122.11C624,-122.11 624,-140.99 624,-140.99"/>
<polygon fill="black" stroke="black" points="620.5,-140.99 624,-150.99 627.5,-140.99 620.5,-140.99"/>
</g>
<!-- RefreshTokenStrategy -->
<g id="node8" class="node">
<title>RefreshTokenStrategy</title>
<ellipse fill="#fdb462" stroke="black" cx="450" cy="-104" rx="97.83" ry="18"/>
<text text-anchor="middle" x="450" y="-99.8" font-family="Times,serif" font-size="14.00">RefreshTokenStrategy</text>
</g>
<!-- RefreshTokenStrategy&#45;&gt;AuthenticationModule -->
<g id="edge7" class="edge">
<title>RefreshTokenStrategy&#45;&gt;AuthenticationModule</title>
<path fill="none" stroke="black" d="M547.93,-104C554.87,-104 559.2,-104 559.2,-104 559.2,-104 559.2,-140.89 559.2,-140.89"/>
<polygon fill="black" stroke="black" points="555.7,-140.89 559.2,-150.89 562.7,-140.89 555.7,-140.89"/>
</g>
<!-- TokenWhitelistService -->
<g id="node9" class="node">
<title>TokenWhitelistService</title>
<ellipse fill="#fdb462" stroke="black" cx="234" cy="-104" rx="100.14" ry="18"/>
<text text-anchor="middle" x="234" y="-99.8" font-family="Times,serif" font-size="14.00">TokenWhitelistService</text>
</g>
<!-- TokenWhitelistService&#45;&gt;AuthenticationModule -->
<g id="edge8" class="edge">
<title>TokenWhitelistService&#45;&gt;AuthenticationModule</title>
<path fill="none" stroke="black" d="M234,-122.02C234,-139.37 234,-163 234,-163 234,-163 542.47,-163 542.47,-163"/>
<polygon fill="black" stroke="black" points="542.47,-166.5 552.47,-163 542.47,-159.5 542.47,-166.5"/>
</g>
</g>
</svg>
