<?xml version="1.0" encoding="UTF-8" standalone="no"?>
<!DOCTYPE svg PUBLIC "-//W3C//DTD SVG 1.1//EN"
 "http://www.w3.org/Graphics/SVG/1.1/DTD/svg11.dtd">
<!-- Generated by graphviz version 2.47.0 (20210316.0004)
 -->
<!-- Title: dependencies Pages: 1 -->
<svg width="1335pt" height="211pt"
 viewBox="0.00 0.00 1335.00 211.00" xmlns="http://www.w3.org/2000/svg" xmlns:xlink="http://www.w3.org/1999/xlink">
<g id="graph0" class="graph" transform="scale(1 1) rotate(0) translate(4 207)">
<title>dependencies</title>
<polygon fill="white" stroke="transparent" points="-4,4 -4,-207 1331,-207 1331,4 -4,4"/>
<text text-anchor="start" x="642.51" y="-42.4" font-family="Times-12" font-weight="bold" font-size="14.00">Legend</text>
<polygon fill="#ffffb3" stroke="transparent" points="429.5,-10 429.5,-30 449.5,-30 449.5,-10 429.5,-10"/>
<text text-anchor="start" x="453.13" y="-15.4" font-family="Times-12" font-size="14.00"> &#160;Declarations</text>
<polygon fill="#8dd3c7" stroke="transparent" points="542.5,-10 542.5,-30 562.5,-30 562.5,-10 542.5,-10"/>
<text text-anchor="start" x="566.23" y="-15.4" font-family="Times-12" font-size="14.00"> &#160;Module</text>
<polygon fill="#80b1d3" stroke="transparent" points="628.5,-10 628.5,-30 648.5,-30 648.5,-10 628.5,-10"/>
<text text-anchor="start" x="652.28" y="-15.4" font-family="Times-12" font-size="14.00"> &#160;Bootstrap</text>
<polygon fill="#fdb462" stroke="transparent" points="725.5,-10 725.5,-30 745.5,-30 745.5,-10 725.5,-10"/>
<text text-anchor="start" x="749.17" y="-15.4" font-family="Times-12" font-size="14.00"> &#160;Providers</text>
<polygon fill="#fb8072" stroke="transparent" points="821.5,-10 821.5,-30 841.5,-30 841.5,-10 821.5,-10"/>
<text text-anchor="start" x="845.23" y="-15.4" font-family="Times-12" font-size="14.00"> &#160;Exports</text>
<g id="clust1" class="cluster">
<title>cluster_AppModule</title>
<polygon fill="none" stroke="black" stroke-dasharray="1,5" points="8,-70 8,-195 1319,-195 1319,-70 8,-70"/>
</g>
<g id="clust3" class="cluster">
<title>cluster_AppModule_imports</title>
<polygon fill="none" stroke="black" points="16,-78 16,-130 1311,-130 1311,-78 16,-78"/>
</g>
<!-- AuthenticationModule -->
<g id="node1" class="node">
<title>AuthenticationModule</title>
<polygon fill="#8dd3c7" stroke="black" points="1303.25,-122 1300.25,-126 1279.25,-126 1276.25,-122 1160.75,-122 1160.75,-86 1303.25,-86 1303.25,-122"/>
<text text-anchor="middle" x="1232" y="-99.8" font-family="Times,serif" font-size="14.00">AuthenticationModule</text>
</g>
<!-- AppModule -->
<g id="node10" class="node">
<title>AppModule</title>
<polygon fill="#8dd3c7" stroke="black" points="643.66,-187 640.66,-191 619.66,-191 616.66,-187 560.34,-187 560.34,-151 643.66,-151 643.66,-187"/>
<text text-anchor="middle" x="602" y="-164.8" font-family="Times,serif" font-size="14.00">AppModule</text>
</g>
<!-- AuthenticationModule&#45;&gt;AppModule -->
<g id="edge1" class="edge">
<title>AuthenticationModule&#45;&gt;AppModule</title>
<path fill="none" stroke="black" d="M1232,-122.01C1232,-144.49 1232,-180 1232,-180 1232,-180 653.82,-180 653.82,-180"/>
<polygon fill="black" stroke="black" points="653.82,-176.5 643.82,-180 653.82,-183.5 653.82,-176.5"/>
</g>
<!-- MilestoneEstimateModule -->
<g id="node2" class="node">
<title>MilestoneEstimateModule</title>
<polygon fill="#8dd3c7" stroke="black" points="1142.03,-122 1139.03,-126 1118.03,-126 1115.03,-122 977.97,-122 977.97,-86 1142.03,-86 1142.03,-122"/>
<text text-anchor="middle" x="1060" y="-99.8" font-family="Times,serif" font-size="14.00">MilestoneEstimateModule</text>
</g>
<!-- MilestoneEstimateModule&#45;&gt;AppModule -->
<g id="edge2" class="edge">
<title>MilestoneEstimateModule&#45;&gt;AppModule</title>
<path fill="none" stroke="black" d="M1060,-122.13C1060,-142.57 1060,-173 1060,-173 1060,-173 653.86,-173 653.86,-173"/>
<polygon fill="black" stroke="black" points="653.86,-169.5 643.86,-173 653.86,-176.5 653.86,-169.5"/>
</g>
<!-- ProfileModule -->
<g id="node3" class="node">
<title>ProfileModule</title>
<polygon fill="#8dd3c7" stroke="black" points="959.65,-122 956.65,-126 935.65,-126 932.65,-122 862.35,-122 862.35,-86 959.65,-86 959.65,-122"/>
<text text-anchor="middle" x="911" y="-99.8" font-family="Times,serif" font-size="14.00">ProfileModule</text>
</g>
<!-- ProfileModule&#45;&gt;AppModule -->
<g id="edge3" class="edge">
<title>ProfileModule&#45;&gt;AppModule</title>
<path fill="none" stroke="black" d="M911,-122.27C911,-140.56 911,-166 911,-166 911,-166 653.67,-166 653.67,-166"/>
<polygon fill="black" stroke="black" points="653.67,-162.5 643.67,-166 653.67,-169.5 653.67,-162.5"/>
</g>
<!-- ProjectMemberModule -->
<g id="node4" class="node">
<title>ProjectMemberModule</title>
<polygon fill="#8dd3c7" stroke="black" points="844.13,-122 841.13,-126 820.13,-126 817.13,-122 697.87,-122 697.87,-86 844.13,-86 844.13,-122"/>
<text text-anchor="middle" x="771" y="-99.8" font-family="Times,serif" font-size="14.00">ProjectMemberModule</text>
</g>
<!-- ProjectMemberModule&#45;&gt;AppModule -->
<g id="edge4" class="edge">
<title>ProjectMemberModule&#45;&gt;AppModule</title>
<path fill="none" stroke="black" d="M771,-122.01C771,-138.05 771,-159 771,-159 771,-159 653.78,-159 653.78,-159"/>
<polygon fill="black" stroke="black" points="653.78,-155.5 643.78,-159 653.78,-162.5 653.78,-155.5"/>
</g>
<!-- ProjectMilestoneModule -->
<g id="node5" class="node">
<title>ProjectMilestoneModule</title>
<polygon fill="#8dd3c7" stroke="black" points="679.69,-122 676.69,-126 655.69,-126 652.69,-122 524.31,-122 524.31,-86 679.69,-86 679.69,-122"/>
<text text-anchor="middle" x="602" y="-99.8" font-family="Times,serif" font-size="14.00">ProjectMilestoneModule</text>
</g>
<!-- ProjectMilestoneModule&#45;&gt;AppModule -->
<g id="edge5" class="edge">
<title>ProjectMilestoneModule&#45;&gt;AppModule</title>
<path fill="none" stroke="black" d="M602,-122.11C602,-122.11 602,-140.99 602,-140.99"/>
<polygon fill="black" stroke="black" points="598.5,-140.99 602,-150.99 605.5,-140.99 598.5,-140.99"/>
</g>
<!-- ProjectModule -->
<g id="node6" class="node">
<title>ProjectModule</title>
<polygon fill="#8dd3c7" stroke="black" points="506.7,-122 503.7,-126 482.7,-126 479.7,-122 407.3,-122 407.3,-86 506.7,-86 506.7,-122"/>
<text text-anchor="middle" x="457" y="-99.8" font-family="Times,serif" font-size="14.00">ProjectModule</text>
</g>
<!-- ProjectModule&#45;&gt;AppModule -->
<g id="edge6" class="edge">
<title>ProjectModule&#45;&gt;AppModule</title>
<path fill="none" stroke="black" d="M457,-122.01C457,-138.05 457,-159 457,-159 457,-159 550.06,-159 550.06,-159"/>
<polygon fill="black" stroke="black" points="550.06,-162.5 560.06,-159 550.06,-155.5 550.06,-162.5"/>
</g>
<!-- ProjectReportModule -->
<g id="node7" class="node">
<title>ProjectReportModule</title>
<polygon fill="#8dd3c7" stroke="black" points="389.81,-122 386.81,-126 365.81,-126 362.81,-122 252.19,-122 252.19,-86 389.81,-86 389.81,-122"/>
<text text-anchor="middle" x="321" y="-99.8" font-family="Times,serif" font-size="14.00">ProjectReportModule</text>
</g>
<!-- ProjectReportModule&#45;&gt;AppModule -->
<g id="edge7" class="edge">
<title>ProjectReportModule&#45;&gt;AppModule</title>
<path fill="none" stroke="black" d="M321,-122.27C321,-140.56 321,-166 321,-166 321,-166 550.23,-166 550.23,-166"/>
<polygon fill="black" stroke="black" points="550.23,-169.5 560.23,-166 550.23,-162.5 550.23,-169.5"/>
</g>
<!-- ServicesModule -->
<g id="node8" class="node">
<title>ServicesModule</title>
<polygon fill="#8dd3c7" stroke="black" points="234.47,-122 231.47,-126 210.47,-126 207.47,-122 127.53,-122 127.53,-86 234.47,-86 234.47,-122"/>
<text text-anchor="middle" x="181" y="-99.8" font-family="Times,serif" font-size="14.00">ServicesModule</text>
</g>
<!-- ServicesModule&#45;&gt;AppModule -->
<g id="edge8" class="edge">
<title>ServicesModule&#45;&gt;AppModule</title>
<path fill="none" stroke="black" d="M181,-122.13C181,-142.57 181,-173 181,-173 181,-173 550.09,-173 550.09,-173"/>
<polygon fill="black" stroke="black" points="550.09,-176.5 560.09,-173 550.09,-169.5 550.09,-176.5"/>
</g>
<!-- UserModule -->
<g id="node9" class="node">
<title>UserModule</title>
<polygon fill="#8dd3c7" stroke="black" points="109.98,-122 106.98,-126 85.98,-126 82.98,-122 24.02,-122 24.02,-86 109.98,-86 109.98,-122"/>
<text text-anchor="middle" x="67" y="-99.8" font-family="Times,serif" font-size="14.00">UserModule</text>
</g>
<!-- UserModule&#45;&gt;AppModule -->
<g id="edge9" class="edge">
<title>UserModule&#45;&gt;AppModule</title>
<path fill="none" stroke="black" d="M67,-122.01C67,-144.49 67,-180 67,-180 67,-180 550.02,-180 550.02,-180"/>
<polygon fill="black" stroke="black" points="550.02,-183.5 560.02,-180 550.02,-176.5 550.02,-183.5"/>
</g>
</g>
</svg>
