<?xml version="1.0" encoding="UTF-8" standalone="no"?>
<!DOCTYPE svg PUBLIC "-//W3C//DTD SVG 1.1//EN"
 "http://www.w3.org/Graphics/SVG/1.1/DTD/svg11.dtd">
<!-- Generated by graphviz version 2.47.0 (20210316.0004)
 -->
<!-- Title: dependencies Pages: 1 -->
<svg width="504pt" height="211pt"
 viewBox="0.00 0.00 504.00 211.00" xmlns="http://www.w3.org/2000/svg" xmlns:xlink="http://www.w3.org/1999/xlink">
<g id="graph0" class="graph" transform="scale(1 1) rotate(0) translate(4 207)">
<title>dependencies</title>
<polygon fill="white" stroke="transparent" points="-4,4 -4,-207 500,-207 500,4 -4,4"/>
<text text-anchor="start" x="227.01" y="-42.4" font-family="Times-12" font-weight="bold" font-size="14.00">Legend</text>
<polygon fill="#ffffb3" stroke="transparent" points="14,-10 14,-30 34,-30 34,-10 14,-10"/>
<text text-anchor="start" x="37.63" y="-15.4" font-family="Times-12" font-size="14.00"> &#160;Declarations</text>
<polygon fill="#8dd3c7" stroke="transparent" points="127,-10 127,-30 147,-30 147,-10 127,-10"/>
<text text-anchor="start" x="150.73" y="-15.4" font-family="Times-12" font-size="14.00"> &#160;Module</text>
<polygon fill="#80b1d3" stroke="transparent" points="213,-10 213,-30 233,-30 233,-10 213,-10"/>
<text text-anchor="start" x="236.78" y="-15.4" font-family="Times-12" font-size="14.00"> &#160;Bootstrap</text>
<polygon fill="#fdb462" stroke="transparent" points="310,-10 310,-30 330,-30 330,-10 310,-10"/>
<text text-anchor="start" x="333.67" y="-15.4" font-family="Times-12" font-size="14.00"> &#160;Providers</text>
<polygon fill="#fb8072" stroke="transparent" points="406,-10 406,-30 426,-30 426,-10 406,-10"/>
<text text-anchor="start" x="429.73" y="-15.4" font-family="Times-12" font-size="14.00"> &#160;Exports</text>
<g id="clust1" class="cluster">
<title>cluster_ProfileModule</title>
<polygon fill="none" stroke="black" stroke-dasharray="1,5" points="107,-70 107,-195 389,-195 389,-70 107,-70"/>
</g>
<g id="clust3" class="cluster">
<title>cluster_ProfileModule_imports</title>
<polygon fill="none" stroke="black" points="115,-78 115,-130 381,-130 381,-78 115,-78"/>
</g>
<!-- ProjectMemberModule -->
<g id="node1" class="node">
<title>ProjectMemberModule</title>
<polygon fill="#8dd3c7" stroke="black" points="373.13,-122 370.13,-126 349.13,-126 346.13,-122 226.87,-122 226.87,-86 373.13,-86 373.13,-122"/>
<text text-anchor="middle" x="300" y="-99.8" font-family="Times,serif" font-size="14.00">ProjectMemberModule</text>
</g>
<!-- ProfileModule -->
<g id="node3" class="node">
<title>ProfileModule</title>
<polygon fill="#8dd3c7" stroke="black" points="281.65,-187 278.65,-191 257.65,-191 254.65,-187 184.35,-187 184.35,-151 281.65,-151 281.65,-187"/>
<text text-anchor="middle" x="233" y="-164.8" font-family="Times,serif" font-size="14.00">ProfileModule</text>
</g>
<!-- ProjectMemberModule&#45;&gt;ProfileModule -->
<g id="edge1" class="edge">
<title>ProjectMemberModule&#45;&gt;ProfileModule</title>
<path fill="none" stroke="black" d="M254.26,-122.11C254.26,-122.11 254.26,-140.99 254.26,-140.99"/>
<polygon fill="black" stroke="black" points="250.76,-140.99 254.26,-150.99 257.76,-140.99 250.76,-140.99"/>
</g>
<!-- UserModule -->
<g id="node2" class="node">
<title>UserModule</title>
<polygon fill="#8dd3c7" stroke="black" points="208.98,-122 205.98,-126 184.98,-126 181.98,-122 123.02,-122 123.02,-86 208.98,-86 208.98,-122"/>
<text text-anchor="middle" x="166" y="-99.8" font-family="Times,serif" font-size="14.00">UserModule</text>
</g>
<!-- UserModule&#45;&gt;ProfileModule -->
<g id="edge2" class="edge">
<title>UserModule&#45;&gt;ProfileModule</title>
<path fill="none" stroke="black" d="M196.58,-122.11C196.58,-122.11 196.58,-140.99 196.58,-140.99"/>
<polygon fill="black" stroke="black" points="193.08,-140.99 196.58,-150.99 200.08,-140.99 193.08,-140.99"/>
</g>
</g>
</svg>
