<?xml version="1.0" encoding="UTF-8" standalone="no"?>
<!DOCTYPE svg PUBLIC "-//W3C//DTD SVG 1.1//EN"
 "http://www.w3.org/Graphics/SVG/1.1/DTD/svg11.dtd">
<!-- Generated by graphviz version 2.47.0 (20210316.0004)
 -->
<!-- Title: dependencies Pages: 1 -->
<svg width="2656pt" height="447pt"
 viewBox="0.00 0.00 2656.00 447.00" xmlns="http://www.w3.org/2000/svg" xmlns:xlink="http://www.w3.org/1999/xlink">
<g id="graph0" class="graph" transform="scale(1 1) rotate(0) translate(4 443)">
<title>dependencies</title>
<polygon fill="white" stroke="transparent" points="-4,4 -4,-443 2652,-443 2652,4 -4,4"/>
<text text-anchor="start" x="1303.01" y="-42.4" font-family="Times-12" font-weight="bold" font-size="14.00">Legend</text>
<polygon fill="#ffffb3" stroke="transparent" points="1090,-10 1090,-30 1110,-30 1110,-10 1090,-10"/>
<text text-anchor="start" x="1113.63" y="-15.4" font-family="Times-12" font-size="14.00"> &#160;Declarations</text>
<polygon fill="#8dd3c7" stroke="transparent" points="1203,-10 1203,-30 1223,-30 1223,-10 1203,-10"/>
<text text-anchor="start" x="1226.73" y="-15.4" font-family="Times-12" font-size="14.00"> &#160;Module</text>
<polygon fill="#80b1d3" stroke="transparent" points="1289,-10 1289,-30 1309,-30 1309,-10 1289,-10"/>
<text text-anchor="start" x="1312.78" y="-15.4" font-family="Times-12" font-size="14.00"> &#160;Bootstrap</text>
<polygon fill="#fdb462" stroke="transparent" points="1386,-10 1386,-30 1406,-30 1406,-10 1386,-10"/>
<text text-anchor="start" x="1409.67" y="-15.4" font-family="Times-12" font-size="14.00"> &#160;Providers</text>
<polygon fill="#fb8072" stroke="transparent" points="1482,-10 1482,-30 1502,-30 1502,-10 1482,-10"/>
<text text-anchor="start" x="1505.73" y="-15.4" font-family="Times-12" font-size="14.00"> &#160;Exports</text>
<g id="clust1" class="cluster">
<title>cluster_AppModule</title>
<polygon fill="none" stroke="black" stroke-dasharray="1,5" points="942,-146 942,-423 1526,-423 1526,-146 942,-146"/>
</g>
<g id="clust3" class="cluster">
<title>cluster_AppModule_imports</title>
<polygon fill="none" stroke="black" points="950,-154 950,-347 1466,-347 1466,-154 950,-154"/>
</g>
<g id="clust7" class="cluster">
<title>cluster_AuthenticationModule</title>
<polygon fill="none" stroke="black" stroke-dasharray="1,5" points="8,-70 8,-138 1329,-138 1329,-70 8,-70"/>
</g>
<g id="clust10" class="cluster">
<title>cluster_AuthenticationModule_exports</title>
<polygon fill="none" stroke="black" points="16,-78 16,-130 176,-130 176,-78 16,-78"/>
</g>
<g id="clust12" class="cluster">
<title>cluster_AuthenticationModule_providers</title>
<polygon fill="none" stroke="black" points="184,-78 184,-130 1321,-130 1321,-78 184,-78"/>
</g>
<g id="clust13" class="cluster">
<title>cluster_MilestoneEstimateModule</title>
<polygon fill="none" stroke="black" stroke-dasharray="1,5" points="1534,-211 1534,-279 1980,-279 1980,-211 1534,-211"/>
</g>
<g id="clust16" class="cluster">
<title>cluster_MilestoneEstimateModule_exports</title>
<polygon fill="none" stroke="black" points="1790,-219 1790,-271 1972,-271 1972,-219 1790,-219"/>
</g>
<g id="clust18" class="cluster">
<title>cluster_MilestoneEstimateModule_providers</title>
<polygon fill="none" stroke="black" points="1542,-219 1542,-271 1782,-271 1782,-219 1542,-219"/>
</g>
<g id="clust25" class="cluster">
<title>cluster_ProjectMemberModule</title>
<polygon fill="none" stroke="black" stroke-dasharray="1,5" points="1534,-287 1534,-355 1938,-355 1938,-287 1534,-287"/>
</g>
<g id="clust28" class="cluster">
<title>cluster_ProjectMemberModule_exports</title>
<polygon fill="none" stroke="black" points="1766,-295 1766,-347 1930,-347 1930,-295 1766,-295"/>
</g>
<g id="clust30" class="cluster">
<title>cluster_ProjectMemberModule_providers</title>
<polygon fill="none" stroke="black" points="1542,-295 1542,-347 1758,-347 1758,-295 1542,-295"/>
</g>
<g id="clust31" class="cluster">
<title>cluster_ProjectMilestoneModule</title>
<polygon fill="none" stroke="black" stroke-dasharray="1,5" points="1946,-287 1946,-355 2558,-355 2558,-287 1946,-287"/>
</g>
<g id="clust34" class="cluster">
<title>cluster_ProjectMilestoneModule_exports</title>
<polygon fill="none" stroke="black" points="2190,-295 2190,-347 2550,-347 2550,-295 2190,-295"/>
</g>
<g id="clust36" class="cluster">
<title>cluster_ProjectMilestoneModule_providers</title>
<polygon fill="none" stroke="black" points="1954,-295 1954,-347 2182,-347 2182,-295 1954,-295"/>
</g>
<g id="clust37" class="cluster">
<title>cluster_ProjectModule</title>
<polygon fill="none" stroke="black" stroke-dasharray="1,5" points="1534,-363 1534,-431 1826,-431 1826,-363 1534,-363"/>
</g>
<g id="clust40" class="cluster">
<title>cluster_ProjectModule_exports</title>
<polygon fill="none" stroke="black" points="1700,-371 1700,-423 1818,-423 1818,-371 1700,-371"/>
</g>
<g id="clust42" class="cluster">
<title>cluster_ProjectModule_providers</title>
<polygon fill="none" stroke="black" points="1542,-371 1542,-423 1692,-423 1692,-371 1542,-371"/>
</g>
<g id="clust43" class="cluster">
<title>cluster_ProjectReportModule</title>
<polygon fill="none" stroke="black" stroke-dasharray="1,5" points="1988,-211 1988,-279 2372,-279 2372,-211 1988,-211"/>
</g>
<g id="clust46" class="cluster">
<title>cluster_ProjectReportModule_exports</title>
<polygon fill="none" stroke="black" points="2208,-219 2208,-271 2364,-271 2364,-219 2208,-219"/>
</g>
<g id="clust48" class="cluster">
<title>cluster_ProjectReportModule_providers</title>
<polygon fill="none" stroke="black" points="1996,-219 1996,-271 2200,-271 2200,-219 1996,-219"/>
</g>
<g id="clust49" class="cluster">
<title>cluster_UserModule</title>
<polygon fill="none" stroke="black" stroke-dasharray="1,5" points="2380,-211 2380,-279 2640,-279 2640,-211 2380,-211"/>
</g>
<g id="clust52" class="cluster">
<title>cluster_UserModule_exports</title>
<polygon fill="none" stroke="black" points="2528,-219 2528,-271 2632,-271 2632,-219 2528,-219"/>
</g>
<g id="clust54" class="cluster">
<title>cluster_UserModule_providers</title>
<polygon fill="none" stroke="black" points="2388,-219 2388,-271 2520,-271 2520,-219 2388,-219"/>
</g>
<!-- AuthenticationModule -->
<g id="node1" class="node">
<title>AuthenticationModule</title>
<polygon fill="#8dd3c7" stroke="black" points="1100.25,-263 1097.25,-267 1076.25,-267 1073.25,-263 957.75,-263 957.75,-227 1100.25,-227 1100.25,-263"/>
<text text-anchor="middle" x="1029" y="-240.8" font-family="Times,serif" font-size="14.00">AuthenticationModule</text>
</g>
<!-- AppModule -->
<g id="node9" class="node">
<title>AppModule</title>
<polygon fill="#8dd3c7" stroke="black" points="1391.66,-415 1388.66,-419 1367.66,-419 1364.66,-415 1308.34,-415 1308.34,-379 1391.66,-379 1391.66,-415"/>
<text text-anchor="middle" x="1350" y="-392.8" font-family="Times,serif" font-size="14.00">AppModule</text>
</g>
<!-- AuthenticationModule&#45;&gt;AppModule -->
<g id="edge1" class="edge">
<title>AuthenticationModule&#45;&gt;AppModule</title>
<path fill="none" stroke="black" d="M1029,-263.16C1029,-305.26 1029,-406 1029,-406 1029,-406 1298.03,-406 1298.03,-406"/>
<polygon fill="black" stroke="black" points="1298.03,-409.5 1308.03,-406 1298.03,-402.5 1298.03,-409.5"/>
</g>
<!-- AuthenticationService  -->
<g id="node10" class="node">
<title>AuthenticationService </title>
<polygon fill="#fb8072" stroke="black" points="168.18,-122 23.82,-122 23.82,-86 168.18,-86 168.18,-122"/>
<text text-anchor="middle" x="96" y="-99.8" font-family="Times,serif" font-size="14.00">AuthenticationService </text>
</g>
<!-- AuthenticationModule&#45;&gt;AuthenticationService  -->
<g id="edge10" class="edge">
<title>AuthenticationModule&#45;&gt;AuthenticationService </title>
<path fill="none" stroke="black" stroke-dasharray="5,2" d="M957.72,-256C739.62,-256 96,-256 96,-256 96,-256 96,-132.03 96,-132.03"/>
<polygon fill="black" stroke="black" points="99.5,-132.03 96,-122.03 92.5,-132.03 99.5,-132.03"/>
</g>
<!-- MilestoneEstimateModule -->
<g id="node2" class="node">
<title>MilestoneEstimateModule</title>
<polygon fill="#8dd3c7" stroke="black" points="1302.03,-198 1299.03,-202 1278.03,-202 1275.03,-198 1137.97,-198 1137.97,-162 1302.03,-162 1302.03,-198"/>
<text text-anchor="middle" x="1220" y="-175.8" font-family="Times,serif" font-size="14.00">MilestoneEstimateModule</text>
</g>
<!-- ProjectMilestoneModule -->
<g id="node5" class="node">
<title>ProjectMilestoneModule</title>
<polygon fill="#8dd3c7" stroke="black" points="1457.69,-263 1454.69,-267 1433.69,-267 1430.69,-263 1302.31,-263 1302.31,-227 1457.69,-227 1457.69,-263"/>
<text text-anchor="middle" x="1380" y="-240.8" font-family="Times,serif" font-size="14.00">ProjectMilestoneModule</text>
</g>
<!-- MilestoneEstimateModule&#45;&gt;ProjectMilestoneModule -->
<g id="edge25" class="edge">
<title>MilestoneEstimateModule&#45;&gt;ProjectMilestoneModule</title>
<path fill="none" stroke="black" d="M1302.31,-180C1304.67,-180 1306.01,-180 1306.01,-180 1306.01,-180 1306.01,-216.89 1306.01,-216.89"/>
<polygon fill="black" stroke="black" points="1302.51,-216.89 1306.01,-226.89 1309.51,-216.89 1302.51,-216.89"/>
</g>
<!-- MilestoneEstimateModule&#45;&gt;AppModule -->
<g id="edge2" class="edge">
<title>MilestoneEstimateModule&#45;&gt;AppModule</title>
<path fill="none" stroke="black" d="M1297.78,-198.16C1297.78,-230.1 1297.78,-293 1297.78,-293 1297.78,-293 1346.68,-293 1346.68,-293 1346.68,-293 1346.68,-368.88 1346.68,-368.88"/>
<polygon fill="black" stroke="black" points="1343.18,-368.88 1346.68,-378.88 1350.18,-368.88 1343.18,-368.88"/>
</g>
<!-- MilestoneEstimateService  -->
<g id="node17" class="node">
<title>MilestoneEstimateService </title>
<polygon fill="#fb8072" stroke="black" points="1964.46,-263 1797.54,-263 1797.54,-227 1964.46,-227 1964.46,-263"/>
<text text-anchor="middle" x="1881" y="-240.8" font-family="Times,serif" font-size="14.00">MilestoneEstimateService </text>
</g>
<!-- MilestoneEstimateModule&#45;&gt;MilestoneEstimateService  -->
<g id="edge17" class="edge">
<title>MilestoneEstimateModule&#45;&gt;MilestoneEstimateService </title>
<path fill="none" stroke="black" stroke-dasharray="5,2" d="M1288.8,-198.04C1288.8,-205.75 1288.8,-213 1288.8,-213 1288.8,-213 1881,-213 1881,-213 1881,-213 1881,-216.76 1881,-216.76"/>
<polygon fill="black" stroke="black" points="1877.5,-216.76 1881,-226.76 1884.5,-216.76 1877.5,-216.76"/>
</g>
<!-- ProfileModule -->
<g id="node3" class="node">
<title>ProfileModule</title>
<polygon fill="#8dd3c7" stroke="black" points="1340.65,-339 1337.65,-343 1316.65,-343 1313.65,-339 1243.35,-339 1243.35,-303 1340.65,-303 1340.65,-339"/>
<text text-anchor="middle" x="1292" y="-316.8" font-family="Times,serif" font-size="14.00">ProfileModule</text>
</g>
<!-- ProfileModule&#45;&gt;AppModule -->
<g id="edge3" class="edge">
<title>ProfileModule&#45;&gt;AppModule</title>
<path fill="none" stroke="black" d="M1324.5,-339.01C1324.5,-339.01 1324.5,-368.85 1324.5,-368.85"/>
<polygon fill="black" stroke="black" points="1321,-368.85 1324.5,-378.85 1328,-368.85 1321,-368.85"/>
</g>
<!-- ProjectMemberModule -->
<g id="node4" class="node">
<title>ProjectMemberModule</title>
<polygon fill="#8dd3c7" stroke="black" points="1284.13,-263 1281.13,-267 1260.13,-267 1257.13,-263 1137.87,-263 1137.87,-227 1284.13,-227 1284.13,-263"/>
<text text-anchor="middle" x="1211" y="-240.8" font-family="Times,serif" font-size="14.00">ProjectMemberModule</text>
</g>
<!-- ProjectMemberModule&#45;&gt;ProfileModule -->
<g id="edge20" class="edge">
<title>ProjectMemberModule&#45;&gt;ProfileModule</title>
<path fill="none" stroke="black" d="M1251.4,-263.01C1251.4,-263.01 1251.4,-292.85 1251.4,-292.85"/>
<polygon fill="black" stroke="black" points="1247.9,-292.85 1251.4,-302.85 1254.9,-292.85 1247.9,-292.85"/>
</g>
<!-- ProjectModule -->
<g id="node6" class="node">
<title>ProjectModule</title>
<polygon fill="#8dd3c7" stroke="black" points="1457.7,-339 1454.7,-343 1433.7,-343 1430.7,-339 1358.3,-339 1358.3,-303 1457.7,-303 1457.7,-339"/>
<text text-anchor="middle" x="1408" y="-316.8" font-family="Times,serif" font-size="14.00">ProjectModule</text>
</g>
<!-- ProjectMemberModule&#45;&gt;ProjectModule -->
<g id="edge29" class="edge">
<title>ProjectMemberModule&#45;&gt;ProjectModule</title>
<path fill="none" stroke="black" d="M1267.86,-263.24C1267.86,-278.57 1267.86,-298 1267.86,-298 1267.86,-298 1374.93,-298 1374.93,-298 1374.93,-298 1374.93,-298.49 1374.93,-298.49"/>
<polygon fill="black" stroke="black" points="1371.43,-292.88 1374.93,-302.88 1378.43,-292.88 1371.43,-292.88"/>
</g>
<!-- ProjectMemberModule&#45;&gt;AppModule -->
<g id="edge4" class="edge">
<title>ProjectMemberModule&#45;&gt;AppModule</title>
<path fill="none" stroke="black" d="M1190.43,-263.11C1190.43,-301.59 1190.43,-388 1190.43,-388 1190.43,-388 1298.08,-388 1298.08,-388"/>
<polygon fill="black" stroke="black" points="1298.08,-391.5 1308.08,-388 1298.07,-384.5 1298.08,-391.5"/>
</g>
<!-- ProjectMemberService  -->
<g id="node19" class="node">
<title>ProjectMemberService </title>
<polygon fill="#fb8072" stroke="black" points="1922.06,-339 1773.94,-339 1773.94,-303 1922.06,-303 1922.06,-339"/>
<text text-anchor="middle" x="1848" y="-316.8" font-family="Times,serif" font-size="14.00">ProjectMemberService </text>
</g>
<!-- ProjectMemberModule&#45;&gt;ProjectMemberService  -->
<g id="edge23" class="edge">
<title>ProjectMemberModule&#45;&gt;ProjectMemberService </title>
<path fill="none" stroke="black" stroke-dasharray="5,2" d="M1276.09,-263.11C1276.09,-272.9 1276.09,-283 1276.09,-283 1276.09,-283 1786.09,-283 1786.09,-283 1786.09,-283 1786.09,-292.89 1786.09,-292.89"/>
<polygon fill="black" stroke="black" points="1782.59,-292.89 1786.09,-302.89 1789.59,-292.89 1782.59,-292.89"/>
</g>
<!-- ProjectMilestoneModule&#45;&gt;ProjectModule -->
<g id="edge30" class="edge">
<title>ProjectMilestoneModule&#45;&gt;ProjectModule</title>
<path fill="none" stroke="black" d="M1391.46,-263.01C1391.46,-263.01 1391.46,-292.85 1391.46,-292.85"/>
<polygon fill="black" stroke="black" points="1387.96,-292.85 1391.46,-302.85 1394.96,-292.85 1387.96,-292.85"/>
</g>
<!-- ProjectMilestoneModule&#45;&gt;AppModule -->
<g id="edge5" class="edge">
<title>ProjectMilestoneModule&#45;&gt;AppModule</title>
<path fill="none" stroke="black" d="M1352.54,-263.03C1352.54,-263.03 1352.54,-368.99 1352.54,-368.99"/>
<polygon fill="black" stroke="black" points="1349.04,-368.99 1352.54,-378.99 1356.04,-368.99 1349.04,-368.99"/>
</g>
<!-- MilestoneEstimateModule  -->
<g id="node21" class="node">
<title>MilestoneEstimateModule </title>
<polygon fill="#fb8072" stroke="black" points="2366.03,-339 2197.97,-339 2197.97,-303 2366.03,-303 2366.03,-339"/>
<text text-anchor="middle" x="2282" y="-316.8" font-family="Times,serif" font-size="14.00">MilestoneEstimateModule </text>
</g>
<!-- ProjectMilestoneModule&#45;&gt;MilestoneEstimateModule  -->
<g id="edge26" class="edge">
<title>ProjectMilestoneModule&#45;&gt;MilestoneEstimateModule </title>
<path fill="none" stroke="black" stroke-dasharray="5,2" d="M1408,-263.21C1408,-268.55 1408,-273 1408,-273 1408,-273 2207.18,-273 2207.18,-273 2207.18,-273 2207.18,-292.85 2207.18,-292.85"/>
<polygon fill="black" stroke="black" points="2203.68,-292.85 2207.18,-302.85 2210.68,-292.85 2203.68,-292.85"/>
</g>
<!-- ProjectMilestoneService  -->
<g id="node22" class="node">
<title>ProjectMilestoneService </title>
<polygon fill="#fb8072" stroke="black" points="2541.62,-339 2384.38,-339 2384.38,-303 2541.62,-303 2541.62,-339"/>
<text text-anchor="middle" x="2463" y="-316.8" font-family="Times,serif" font-size="14.00">ProjectMilestoneService </text>
</g>
<!-- ProjectMilestoneModule&#45;&gt;ProjectMilestoneService  -->
<g id="edge27" class="edge">
<title>ProjectMilestoneModule&#45;&gt;ProjectMilestoneService </title>
<path fill="none" stroke="black" stroke-dasharray="5,2" d="M1424.53,-263.12C1424.53,-265.97 1424.53,-268 1424.53,-268 1424.53,-268 2390.11,-268 2390.11,-268 2390.11,-268 2390.11,-292.76 2390.11,-292.76"/>
<polygon fill="black" stroke="black" points="2386.61,-292.76 2390.11,-302.76 2393.61,-292.76 2386.61,-292.76"/>
</g>
<!-- ProjectModule&#45;&gt;AppModule -->
<g id="edge6" class="edge">
<title>ProjectModule&#45;&gt;AppModule</title>
<path fill="none" stroke="black" d="M1375.11,-339.01C1375.11,-339.01 1375.11,-368.85 1375.11,-368.85"/>
<polygon fill="black" stroke="black" points="1371.61,-368.85 1375.11,-378.85 1378.61,-368.85 1371.61,-368.85"/>
</g>
<!-- ProjectService  -->
<g id="node24" class="node">
<title>ProjectService </title>
<polygon fill="#fb8072" stroke="black" points="1809.63,-415 1708.37,-415 1708.37,-379 1809.63,-379 1809.63,-415"/>
<text text-anchor="middle" x="1759" y="-392.8" font-family="Times,serif" font-size="14.00">ProjectService </text>
</g>
<!-- ProjectModule&#45;&gt;ProjectService  -->
<g id="edge31" class="edge">
<title>ProjectModule&#45;&gt;ProjectService </title>
<path fill="none" stroke="black" stroke-dasharray="5,2" d="M1413.75,-339.11C1413.75,-348.9 1413.75,-359 1413.75,-359 1413.75,-359 1729.25,-359 1729.25,-359 1729.25,-359 1729.25,-368.89 1729.25,-368.89"/>
<polygon fill="black" stroke="black" points="1725.75,-368.89 1729.25,-378.89 1732.75,-368.89 1725.75,-368.89"/>
</g>
<!-- ProjectReportModule -->
<g id="node7" class="node">
<title>ProjectReportModule</title>
<polygon fill="#8dd3c7" stroke="black" points="1457.81,-198 1454.81,-202 1433.81,-202 1430.81,-198 1320.19,-198 1320.19,-162 1457.81,-162 1457.81,-198"/>
<text text-anchor="middle" x="1389" y="-175.8" font-family="Times,serif" font-size="14.00">ProjectReportModule</text>
</g>
<!-- ProjectReportModule&#45;&gt;AppModule -->
<g id="edge7" class="edge">
<title>ProjectReportModule&#45;&gt;AppModule</title>
<path fill="none" stroke="black" d="M1457.66,-189C1482.07,-189 1503.62,-189 1503.62,-189 1503.62,-189 1503.62,-391 1503.62,-391 1503.62,-391 1401.98,-391 1401.98,-391"/>
<polygon fill="black" stroke="black" points="1401.98,-387.5 1391.98,-391 1401.98,-394.5 1401.98,-387.5"/>
</g>
<!-- ProjectReportService  -->
<g id="node26" class="node">
<title>ProjectReportService </title>
<polygon fill="#fb8072" stroke="black" points="2355.73,-263 2216.27,-263 2216.27,-227 2355.73,-227 2355.73,-263"/>
<text text-anchor="middle" x="2286" y="-240.8" font-family="Times,serif" font-size="14.00">ProjectReportService </text>
</g>
<!-- ProjectReportModule&#45;&gt;ProjectReportService  -->
<g id="edge33" class="edge">
<title>ProjectReportModule&#45;&gt;ProjectReportService </title>
<path fill="none" stroke="black" stroke-dasharray="5,2" d="M1457.9,-171C1667.94,-171 2286,-171 2286,-171 2286,-171 2286,-216.71 2286,-216.71"/>
<polygon fill="black" stroke="black" points="2282.5,-216.71 2286,-226.71 2289.5,-216.71 2282.5,-216.71"/>
</g>
<!-- UserModule -->
<g id="node8" class="node">
<title>UserModule</title>
<polygon fill="#8dd3c7" stroke="black" points="1119.98,-198 1116.98,-202 1095.98,-202 1092.98,-198 1034.02,-198 1034.02,-162 1119.98,-162 1119.98,-198"/>
<text text-anchor="middle" x="1077" y="-175.8" font-family="Times,serif" font-size="14.00">UserModule</text>
</g>
<!-- UserModule&#45;&gt;AuthenticationModule -->
<g id="edge9" class="edge">
<title>UserModule&#45;&gt;AuthenticationModule</title>
<path fill="none" stroke="black" d="M1056.13,-198.11C1056.13,-198.11 1056.13,-216.99 1056.13,-216.99"/>
<polygon fill="black" stroke="black" points="1052.63,-216.99 1056.13,-226.99 1059.63,-216.99 1052.63,-216.99"/>
</g>
<!-- UserModule&#45;&gt;ProfileModule -->
<g id="edge21" class="edge">
<title>UserModule&#45;&gt;ProfileModule</title>
<path fill="none" stroke="black" d="M1113.45,-198.14C1113.45,-236.23 1113.45,-321 1113.45,-321 1113.45,-321 1233.21,-321 1233.21,-321"/>
<polygon fill="black" stroke="black" points="1233.21,-324.5 1243.21,-321 1233.21,-317.5 1233.21,-324.5"/>
</g>
<!-- UserModule&#45;&gt;ProjectMemberModule -->
<g id="edge22" class="edge">
<title>UserModule&#45;&gt;ProjectMemberModule</title>
<path fill="none" stroke="black" d="M1116.72,-198.28C1116.72,-219.32 1116.72,-251 1116.72,-251 1116.72,-251 1127.64,-251 1127.64,-251"/>
<polygon fill="black" stroke="black" points="1127.64,-254.5 1137.64,-251 1127.64,-247.5 1127.64,-254.5"/>
</g>
<!-- UserModule&#45;&gt;AppModule -->
<g id="edge8" class="edge">
<title>UserModule&#45;&gt;AppModule</title>
<path fill="none" stroke="black" d="M1110.18,-198.13C1110.18,-250.28 1110.18,-397 1110.18,-397 1110.18,-397 1298.23,-397 1298.23,-397"/>
<polygon fill="black" stroke="black" points="1298.23,-400.5 1308.23,-397 1298.23,-393.5 1298.23,-400.5"/>
</g>
<!-- UserService  -->
<g id="node28" class="node">
<title>UserService </title>
<polygon fill="#fb8072" stroke="black" points="2623.9,-263 2536.1,-263 2536.1,-227 2623.9,-227 2623.9,-263"/>
<text text-anchor="middle" x="2580" y="-240.8" font-family="Times,serif" font-size="14.00">UserService </text>
</g>
<!-- UserModule&#45;&gt;UserService  -->
<g id="edge35" class="edge">
<title>UserModule&#45;&gt;UserService </title>
<path fill="none" stroke="black" stroke-dasharray="5,2" d="M1103.65,-198.12C1103.65,-200.97 1103.65,-203 1103.65,-203 1103.65,-203 2580,-203 2580,-203 2580,-203 2580,-216.94 2580,-216.94"/>
<polygon fill="black" stroke="black" points="2576.5,-216.94 2580,-226.94 2583.5,-216.94 2576.5,-216.94"/>
</g>
<!-- AccessTokenStrategy -->
<g id="node11" class="node">
<title>AccessTokenStrategy</title>
<ellipse fill="#fdb462" stroke="black" cx="719" cy="-104" rx="95.46" ry="18"/>
<text text-anchor="middle" x="719" y="-99.8" font-family="Times,serif" font-size="14.00">AccessTokenStrategy</text>
</g>
<!-- AccessTokenStrategy&#45;&gt;AuthenticationModule -->
<g id="edge11" class="edge">
<title>AccessTokenStrategy&#45;&gt;AuthenticationModule</title>
<path fill="none" stroke="black" d="M719,-122.21C719,-158.21 719,-235 719,-235 719,-235 947.49,-235 947.49,-235"/>
<polygon fill="black" stroke="black" points="947.49,-238.5 957.49,-235 947.49,-231.5 947.49,-238.5"/>
</g>
<!-- AuthenticationService -->
<g id="node12" class="node">
<title>AuthenticationService</title>
<ellipse fill="#fdb462" stroke="black" cx="930" cy="-104" rx="97.27" ry="18"/>
<text text-anchor="middle" x="930" y="-99.8" font-family="Times,serif" font-size="14.00">AuthenticationService</text>
</g>
<!-- AuthenticationService&#45;&gt;AuthenticationModule -->
<g id="edge12" class="edge">
<title>AuthenticationService&#45;&gt;AuthenticationModule</title>
<path fill="none" stroke="black" d="M992.5,-118.04C992.5,-118.04 992.5,-216.6 992.5,-216.6"/>
<polygon fill="black" stroke="black" points="989,-216.6 992.5,-226.6 996,-216.6 989,-216.6"/>
</g>
<!-- CryptoService -->
<g id="node13" class="node">
<title>CryptoService</title>
<ellipse fill="#fdb462" stroke="black" cx="1112" cy="-104" rx="66.63" ry="18"/>
<text text-anchor="middle" x="1112" y="-99.8" font-family="Times,serif" font-size="14.00">CryptoService</text>
</g>
<!-- CryptoService&#45;&gt;AuthenticationModule -->
<g id="edge13" class="edge">
<title>CryptoService&#45;&gt;AuthenticationModule</title>
<path fill="none" stroke="black" d="M1128.84,-121.65C1128.84,-158.24 1128.84,-239 1128.84,-239 1128.84,-239 1110.49,-239 1110.49,-239"/>
<polygon fill="black" stroke="black" points="1110.49,-235.5 1100.49,-239 1110.49,-242.5 1110.49,-235.5"/>
</g>
<!-- CryptoService&#45;&gt;UserModule -->
<g id="edge36" class="edge">
<title>CryptoService&#45;&gt;UserModule</title>
<path fill="none" stroke="black" d="M1082.59,-120.49C1082.59,-120.49 1082.59,-151.95 1082.59,-151.95"/>
<polygon fill="black" stroke="black" points="1079.09,-151.95 1082.59,-161.95 1086.09,-151.95 1079.09,-151.95"/>
</g>
<!-- DateService -->
<g id="node14" class="node">
<title>DateService</title>
<ellipse fill="#fdb462" stroke="black" cx="1255" cy="-104" rx="58.44" ry="18"/>
<text text-anchor="middle" x="1255" y="-99.8" font-family="Times,serif" font-size="14.00">DateService</text>
</g>
<!-- DateService&#45;&gt;AuthenticationModule -->
<g id="edge14" class="edge">
<title>DateService&#45;&gt;AuthenticationModule</title>
<path fill="none" stroke="black" d="M1309.61,-110.4C1309.61,-135.12 1309.61,-223 1309.61,-223 1309.61,-223 1078.26,-223 1078.26,-223 1078.26,-223 1078.26,-223.38 1078.26,-223.38"/>
<polygon fill="black" stroke="black" points="1074.76,-216.83 1078.26,-226.83 1081.76,-216.83 1074.76,-216.83"/>
</g>
<!-- DateService&#45;&gt;MilestoneEstimateModule -->
<g id="edge18" class="edge">
<title>DateService&#45;&gt;MilestoneEstimateModule</title>
<path fill="none" stroke="black" d="M1249.52,-122.01C1249.52,-122.01 1249.52,-151.85 1249.52,-151.85"/>
<polygon fill="black" stroke="black" points="1246.02,-151.85 1249.52,-161.85 1253.02,-151.85 1246.02,-151.85"/>
</g>
<!-- RefreshTokenStrategy -->
<g id="node15" class="node">
<title>RefreshTokenStrategy</title>
<ellipse fill="#fdb462" stroke="black" cx="290" cy="-104" rx="97.83" ry="18"/>
<text text-anchor="middle" x="290" y="-99.8" font-family="Times,serif" font-size="14.00">RefreshTokenStrategy</text>
</g>
<!-- RefreshTokenStrategy&#45;&gt;AuthenticationModule -->
<g id="edge15" class="edge">
<title>RefreshTokenStrategy&#45;&gt;AuthenticationModule</title>
<path fill="none" stroke="black" d="M290,-122.07C290,-160.94 290,-249 290,-249 290,-249 947.47,-249 947.47,-249"/>
<polygon fill="black" stroke="black" points="947.47,-252.5 957.47,-249 947.47,-245.5 947.47,-252.5"/>
</g>
<!-- TokenWhitelistService -->
<g id="node16" class="node">
<title>TokenWhitelistService</title>
<ellipse fill="#fdb462" stroke="black" cx="506" cy="-104" rx="100.14" ry="18"/>
<text text-anchor="middle" x="506" y="-99.8" font-family="Times,serif" font-size="14.00">TokenWhitelistService</text>
</g>
<!-- TokenWhitelistService&#45;&gt;AuthenticationModule -->
<g id="edge16" class="edge">
<title>TokenWhitelistService&#45;&gt;AuthenticationModule</title>
<path fill="none" stroke="black" d="M506,-122.04C506,-159.45 506,-242 506,-242 506,-242 947.65,-242 947.65,-242"/>
<polygon fill="black" stroke="black" points="947.65,-245.5 957.65,-242 947.65,-238.5 947.65,-245.5"/>
</g>
<!-- MilestoneEstimateService -->
<g id="node18" class="node">
<title>MilestoneEstimateService</title>
<ellipse fill="#fdb462" stroke="black" cx="1662" cy="-245" rx="112.31" ry="18"/>
<text text-anchor="middle" x="1662" y="-240.8" font-family="Times,serif" font-size="14.00">MilestoneEstimateService</text>
</g>
<!-- MilestoneEstimateService&#45;&gt;MilestoneEstimateModule -->
<g id="edge19" class="edge">
<title>MilestoneEstimateService&#45;&gt;MilestoneEstimateModule</title>
<path fill="none" stroke="black" d="M1662,-226.84C1662,-221.96 1662,-218 1662,-218 1662,-218 1293.29,-218 1293.29,-218 1293.29,-218 1293.29,-208.11 1293.29,-208.11"/>
<polygon fill="black" stroke="black" points="1296.79,-208.11 1293.29,-198.11 1289.79,-208.11 1296.79,-208.11"/>
</g>
<!-- ProjectMemberService -->
<g id="node20" class="node">
<title>ProjectMemberService</title>
<ellipse fill="#fdb462" stroke="black" cx="1650" cy="-321" rx="100.11" ry="18"/>
<text text-anchor="middle" x="1650" y="-316.8" font-family="Times,serif" font-size="14.00">ProjectMemberService</text>
</g>
<!-- ProjectMemberService&#45;&gt;ProjectMemberModule -->
<g id="edge24" class="edge">
<title>ProjectMemberService&#45;&gt;ProjectMemberModule</title>
<path fill="none" stroke="black" d="M1650,-302.96C1650,-295.25 1650,-288 1650,-288 1650,-288 1259.63,-288 1259.63,-288 1259.63,-288 1259.63,-273.49 1259.63,-273.49"/>
<polygon fill="black" stroke="black" points="1263.13,-273.49 1259.63,-263.49 1256.13,-273.49 1263.13,-273.49"/>
</g>
<!-- ProjectMilestoneService -->
<g id="node23" class="node">
<title>ProjectMilestoneService</title>
<ellipse fill="#fdb462" stroke="black" cx="2068" cy="-321" rx="105.93" ry="18"/>
<text text-anchor="middle" x="2068" y="-316.8" font-family="Times,serif" font-size="14.00">ProjectMilestoneService</text>
</g>
<!-- ProjectMilestoneService&#45;&gt;ProjectMilestoneModule -->
<g id="edge28" class="edge">
<title>ProjectMilestoneService&#45;&gt;ProjectMilestoneModule</title>
<path fill="none" stroke="black" d="M1984.3,-309.7C1984.3,-296.96 1984.3,-278 1984.3,-278 1984.3,-278 1441.06,-278 1441.06,-278 1441.06,-278 1441.06,-273.04 1441.06,-273.04"/>
<polygon fill="black" stroke="black" points="1444.56,-273.04 1441.06,-263.04 1437.56,-273.04 1444.56,-273.04"/>
</g>
<!-- ProjectService -->
<g id="node25" class="node">
<title>ProjectService</title>
<ellipse fill="#fdb462" stroke="black" cx="1617" cy="-397" rx="67.19" ry="18"/>
<text text-anchor="middle" x="1617" y="-392.8" font-family="Times,serif" font-size="14.00">ProjectService</text>
</g>
<!-- ProjectService&#45;&gt;ProjectModule -->
<g id="edge32" class="edge">
<title>ProjectService&#45;&gt;ProjectModule</title>
<path fill="none" stroke="black" d="M1553.33,-403C1501.08,-403 1435.68,-403 1435.68,-403 1435.68,-403 1435.68,-349.2 1435.68,-349.2"/>
<polygon fill="black" stroke="black" points="1439.18,-349.2 1435.68,-339.2 1432.18,-349.2 1439.18,-349.2"/>
</g>
<!-- ProjectReportService -->
<g id="node27" class="node">
<title>ProjectReportService</title>
<ellipse fill="#fdb462" stroke="black" cx="2098" cy="-245" rx="93.75" ry="18"/>
<text text-anchor="middle" x="2098" y="-240.8" font-family="Times,serif" font-size="14.00">ProjectReportService</text>
</g>
<!-- ProjectReportService&#45;&gt;ProjectReportModule -->
<g id="edge34" class="edge">
<title>ProjectReportService&#45;&gt;ProjectReportModule</title>
<path fill="none" stroke="black" d="M2098,-226.89C2098,-207.66 2098,-180 2098,-180 2098,-180 1467.95,-180 1467.95,-180"/>
<polygon fill="black" stroke="black" points="1467.95,-176.5 1457.95,-180 1467.95,-183.5 1467.95,-176.5"/>
</g>
<!-- UserService -->
<g id="node29" class="node">
<title>UserService</title>
<ellipse fill="#fdb462" stroke="black" cx="2454" cy="-245" rx="58.44" ry="18"/>
<text text-anchor="middle" x="2454" y="-240.8" font-family="Times,serif" font-size="14.00">UserService</text>
</g>
<!-- UserService&#45;&gt;UserModule -->
<g id="edge37" class="edge">
<title>UserService&#45;&gt;UserModule</title>
<path fill="none" stroke="black" d="M2454,-226.93C2454,-217.54 2454,-208 2454,-208 2454,-208 1106.91,-208 1106.91,-208 1106.91,-208 1106.91,-207.02 1106.91,-207.02"/>
<polygon fill="black" stroke="black" points="1110.41,-208.21 1106.91,-198.21 1103.41,-208.21 1110.41,-208.21"/>
</g>
</g>
</svg>
