<?xml version="1.0" encoding="UTF-8" standalone="no"?>
<!DOCTYPE svg PUBLIC "-//W3C//DTD SVG 1.1//EN"
 "http://www.w3.org/Graphics/SVG/1.1/DTD/svg11.dtd">
<!-- Generated by graphviz version 2.47.0 (20210316.0004)
 -->
<!-- Title: dependencies Pages: 1 -->
<svg width="504pt" height="284pt"
 viewBox="0.00 0.00 504.00 284.00" xmlns="http://www.w3.org/2000/svg" xmlns:xlink="http://www.w3.org/1999/xlink">
<g id="graph0" class="graph" transform="scale(1 1) rotate(0) translate(4 280)">
<title>dependencies</title>
<polygon fill="white" stroke="transparent" points="-4,4 -4,-280 500,-280 500,4 -4,4"/>
<text text-anchor="start" x="227.01" y="-42.4" font-family="Times-12" font-weight="bold" font-size="14.00">Legend</text>
<polygon fill="#ffffb3" stroke="transparent" points="14,-10 14,-30 34,-30 34,-10 14,-10"/>
<text text-anchor="start" x="37.63" y="-15.4" font-family="Times-12" font-size="14.00"> &#160;Declarations</text>
<polygon fill="#8dd3c7" stroke="transparent" points="127,-10 127,-30 147,-30 147,-10 127,-10"/>
<text text-anchor="start" x="150.73" y="-15.4" font-family="Times-12" font-size="14.00"> &#160;Module</text>
<polygon fill="#80b1d3" stroke="transparent" points="213,-10 213,-30 233,-30 233,-10 213,-10"/>
<text text-anchor="start" x="236.78" y="-15.4" font-family="Times-12" font-size="14.00"> &#160;Bootstrap</text>
<polygon fill="#fdb462" stroke="transparent" points="310,-10 310,-30 330,-30 330,-10 310,-10"/>
<text text-anchor="start" x="333.67" y="-15.4" font-family="Times-12" font-size="14.00"> &#160;Providers</text>
<polygon fill="#fb8072" stroke="transparent" points="406,-10 406,-30 426,-30 426,-10 406,-10"/>
<text text-anchor="start" x="429.73" y="-15.4" font-family="Times-12" font-size="14.00"> &#160;Exports</text>
<g id="clust1" class="cluster">
<title>cluster_ProjectMilestoneModule</title>
<polygon fill="none" stroke="black" stroke-dasharray="1,5" points="32,-70 32,-268 464,-268 464,-70 32,-70"/>
</g>
<g id="clust4" class="cluster">
<title>cluster_ProjectMilestoneModule_exports</title>
<polygon fill="none" stroke="black" points="61,-208 61,-260 421,-260 421,-208 61,-208"/>
</g>
<g id="clust3" class="cluster">
<title>cluster_ProjectMilestoneModule_imports</title>
<polygon fill="none" stroke="black" points="276,-78 276,-130 456,-130 456,-78 276,-78"/>
</g>
<g id="clust6" class="cluster">
<title>cluster_ProjectMilestoneModule_providers</title>
<polygon fill="none" stroke="black" points="40,-78 40,-130 268,-130 268,-78 40,-78"/>
</g>
<!-- MilestoneEstimateModule -->
<g id="node1" class="node">
<title>MilestoneEstimateModule</title>
<polygon fill="#8dd3c7" stroke="black" points="448.03,-122 445.03,-126 424.03,-126 421.03,-122 283.97,-122 283.97,-86 448.03,-86 448.03,-122"/>
<text text-anchor="middle" x="366" y="-99.8" font-family="Times,serif" font-size="14.00">MilestoneEstimateModule</text>
</g>
<!-- ProjectMilestoneModule -->
<g id="node2" class="node">
<title>ProjectMilestoneModule</title>
<polygon fill="#8dd3c7" stroke="black" points="245.69,-187 242.69,-191 221.69,-191 218.69,-187 90.31,-187 90.31,-151 245.69,-151 245.69,-187"/>
<text text-anchor="middle" x="168" y="-164.8" font-family="Times,serif" font-size="14.00">ProjectMilestoneModule</text>
</g>
<!-- MilestoneEstimateModule&#45;&gt;ProjectMilestoneModule -->
<g id="edge1" class="edge">
<title>MilestoneEstimateModule&#45;&gt;ProjectMilestoneModule</title>
<path fill="none" stroke="black" d="M348.38,-122.02C348.38,-139.37 348.38,-163 348.38,-163 348.38,-163 255.8,-163 255.8,-163"/>
<polygon fill="black" stroke="black" points="255.8,-159.5 245.8,-163 255.8,-166.5 255.8,-159.5"/>
</g>
<!-- MilestoneEstimateModule  -->
<g id="node3" class="node">
<title>MilestoneEstimateModule </title>
<polygon fill="#fb8072" stroke="black" points="413.03,-252 244.97,-252 244.97,-216 413.03,-216 413.03,-252"/>
<text text-anchor="middle" x="329" y="-229.8" font-family="Times,serif" font-size="14.00">MilestoneEstimateModule </text>
</g>
<!-- ProjectMilestoneModule&#45;&gt;MilestoneEstimateModule  -->
<g id="edge2" class="edge">
<title>ProjectMilestoneModule&#45;&gt;MilestoneEstimateModule </title>
<path fill="none" stroke="black" stroke-dasharray="5,2" d="M245.84,-175C250.16,-175 252.78,-175 252.78,-175 252.78,-175 252.78,-205.98 252.78,-205.98"/>
<polygon fill="black" stroke="black" points="249.28,-205.98 252.78,-215.98 256.28,-205.98 249.28,-205.98"/>
</g>
<!-- ProjectMilestoneService  -->
<g id="node4" class="node">
<title>ProjectMilestoneService </title>
<polygon fill="#fb8072" stroke="black" points="226.62,-252 69.38,-252 69.38,-216 226.62,-216 226.62,-252"/>
<text text-anchor="middle" x="148" y="-229.8" font-family="Times,serif" font-size="14.00">ProjectMilestoneService </text>
</g>
<!-- ProjectMilestoneModule&#45;&gt;ProjectMilestoneService  -->
<g id="edge3" class="edge">
<title>ProjectMilestoneModule&#45;&gt;ProjectMilestoneService </title>
<path fill="none" stroke="black" stroke-dasharray="5,2" d="M158.48,-187.11C158.48,-187.11 158.48,-205.99 158.48,-205.99"/>
<polygon fill="black" stroke="black" points="154.98,-205.99 158.48,-215.99 161.98,-205.99 154.98,-205.99"/>
</g>
<!-- ProjectMilestoneService -->
<g id="node5" class="node">
<title>ProjectMilestoneService</title>
<ellipse fill="#fdb462" stroke="black" cx="154" cy="-104" rx="105.93" ry="18"/>
<text text-anchor="middle" x="154" y="-99.8" font-family="Times,serif" font-size="14.00">ProjectMilestoneService</text>
</g>
<!-- ProjectMilestoneService&#45;&gt;ProjectMilestoneModule -->
<g id="edge4" class="edge">
<title>ProjectMilestoneService&#45;&gt;ProjectMilestoneModule</title>
<path fill="none" stroke="black" d="M168,-122.11C168,-122.11 168,-140.99 168,-140.99"/>
<polygon fill="black" stroke="black" points="164.5,-140.99 168,-150.99 171.5,-140.99 164.5,-140.99"/>
</g>
</g>
</svg>
