<?xml version="1.0" encoding="UTF-8" standalone="no"?>
<!DOCTYPE svg PUBLIC "-//W3C//DTD SVG 1.1//EN"
 "http://www.w3.org/Graphics/SVG/1.1/DTD/svg11.dtd">
<!-- Generated by graphviz version 2.47.0 (20210316.0004)
 -->
<!-- Title: dependencies Pages: 1 -->
<svg width="504pt" height="284pt"
 viewBox="0.00 0.00 504.00 284.00" xmlns="http://www.w3.org/2000/svg" xmlns:xlink="http://www.w3.org/1999/xlink">
<g id="graph0" class="graph" transform="scale(1 1) rotate(0) translate(4 280)">
<title>dependencies</title>
<polygon fill="white" stroke="transparent" points="-4,4 -4,-280 500,-280 500,4 -4,4"/>
<text text-anchor="start" x="227.01" y="-42.4" font-family="Times-12" font-weight="bold" font-size="14.00">Legend</text>
<polygon fill="#ffffb3" stroke="transparent" points="14,-10 14,-30 34,-30 34,-10 14,-10"/>
<text text-anchor="start" x="37.63" y="-15.4" font-family="Times-12" font-size="14.00"> &#160;Declarations</text>
<polygon fill="#8dd3c7" stroke="transparent" points="127,-10 127,-30 147,-30 147,-10 127,-10"/>
<text text-anchor="start" x="150.73" y="-15.4" font-family="Times-12" font-size="14.00"> &#160;Module</text>
<polygon fill="#80b1d3" stroke="transparent" points="213,-10 213,-30 233,-30 233,-10 213,-10"/>
<text text-anchor="start" x="236.78" y="-15.4" font-family="Times-12" font-size="14.00"> &#160;Bootstrap</text>
<polygon fill="#fdb462" stroke="transparent" points="310,-10 310,-30 330,-30 330,-10 310,-10"/>
<text text-anchor="start" x="333.67" y="-15.4" font-family="Times-12" font-size="14.00"> &#160;Providers</text>
<polygon fill="#fb8072" stroke="transparent" points="406,-10 406,-30 426,-30 426,-10 406,-10"/>
<text text-anchor="start" x="429.73" y="-15.4" font-family="Times-12" font-size="14.00"> &#160;Exports</text>
<g id="clust1" class="cluster">
<title>cluster_ProjectMilestoneModule</title>
<polygon fill="none" stroke="black" stroke-dasharray="1,5" points="32,-70 32,-268 464,-268 464,-70 32,-70"/>
</g>
<g id="clust4" class="cluster">
<title>cluster_ProjectMilestoneModule_exports</title>
<polygon fill="none" stroke="black" points="55,-208 55,-260 415,-260 415,-208 55,-208"/>
</g>
<g id="clust6" class="cluster">
<title>cluster_ProjectMilestoneModule_providers</title>
<polygon fill="none" stroke="black" points="228,-78 228,-130 456,-130 456,-78 228,-78"/>
</g>
<g id="clust3" class="cluster">
<title>cluster_ProjectMilestoneModule_imports</title>
<polygon fill="none" stroke="black" points="40,-78 40,-130 220,-130 220,-78 40,-78"/>
</g>
<!-- MilestoneEstimateModule -->
<g id="node1" class="node">
<title>MilestoneEstimateModule</title>
<polygon fill="#8dd3c7" stroke="black" points="212.03,-122 209.03,-126 188.03,-126 185.03,-122 47.97,-122 47.97,-86 212.03,-86 212.03,-122"/>
<text text-anchor="middle" x="130" y="-99.8" font-family="Times,serif" font-size="14.00">MilestoneEstimateModule</text>
</g>
<!-- ProjectMilestoneModule -->
<g id="node2" class="node">
<title>ProjectMilestoneModule</title>
<polygon fill="#8dd3c7" stroke="black" points="233.69,-187 230.69,-191 209.69,-191 206.69,-187 78.31,-187 78.31,-151 233.69,-151 233.69,-187"/>
<text text-anchor="middle" x="156" y="-164.8" font-family="Times,serif" font-size="14.00">ProjectMilestoneModule</text>
</g>
<!-- MilestoneEstimateModule&#45;&gt;ProjectMilestoneModule -->
<g id="edge1" class="edge">
<title>MilestoneEstimateModule&#45;&gt;ProjectMilestoneModule</title>
<path fill="none" stroke="black" d="M145.33,-122.11C145.33,-122.11 145.33,-140.99 145.33,-140.99"/>
<polygon fill="black" stroke="black" points="141.83,-140.99 145.33,-150.99 148.83,-140.99 141.83,-140.99"/>
</g>
<!-- MilestoneEstimateModule  -->
<g id="node3" class="node">
<title>MilestoneEstimateModule </title>
<polygon fill="#fb8072" stroke="black" points="407.03,-252 238.97,-252 238.97,-216 407.03,-216 407.03,-252"/>
<text text-anchor="middle" x="323" y="-229.8" font-family="Times,serif" font-size="14.00">MilestoneEstimateModule </text>
</g>
<!-- ProjectMilestoneModule&#45;&gt;MilestoneEstimateModule  -->
<g id="edge2" class="edge">
<title>ProjectMilestoneModule&#45;&gt;MilestoneEstimateModule </title>
<path fill="none" stroke="black" stroke-dasharray="5,2" d="M227.08,-187.11C227.08,-206.34 227.08,-234 227.08,-234 227.08,-234 228.84,-234 228.84,-234"/>
<polygon fill="black" stroke="black" points="228.84,-237.5 238.84,-234 228.84,-230.5 228.84,-237.5"/>
</g>
<!-- ProjectMilestoneService  -->
<g id="node4" class="node">
<title>ProjectMilestoneService </title>
<polygon fill="#fb8072" stroke="black" points="220.62,-252 63.38,-252 63.38,-216 220.62,-216 220.62,-252"/>
<text text-anchor="middle" x="142" y="-229.8" font-family="Times,serif" font-size="14.00">ProjectMilestoneService </text>
</g>
<!-- ProjectMilestoneModule&#45;&gt;ProjectMilestoneService  -->
<g id="edge3" class="edge">
<title>ProjectMilestoneModule&#45;&gt;ProjectMilestoneService </title>
<path fill="none" stroke="black" stroke-dasharray="5,2" d="M149.48,-187.11C149.48,-187.11 149.48,-205.99 149.48,-205.99"/>
<polygon fill="black" stroke="black" points="145.98,-205.99 149.48,-215.99 152.98,-205.99 145.98,-205.99"/>
</g>
<!-- ProjectMilestoneService -->
<g id="node5" class="node">
<title>ProjectMilestoneService</title>
<ellipse fill="#fdb462" stroke="black" cx="342" cy="-104" rx="105.93" ry="18"/>
<text text-anchor="middle" x="342" y="-99.8" font-family="Times,serif" font-size="14.00">ProjectMilestoneService</text>
</g>
<!-- ProjectMilestoneService&#45;&gt;ProjectMilestoneModule -->
<g id="edge4" class="edge">
<title>ProjectMilestoneService&#45;&gt;ProjectMilestoneModule</title>
<path fill="none" stroke="black" d="M235.67,-104C227.84,-104 222.93,-104 222.93,-104 222.93,-104 222.93,-140.89 222.93,-140.89"/>
<polygon fill="black" stroke="black" points="219.43,-140.89 222.93,-150.89 226.43,-140.89 219.43,-140.89"/>
</g>
</g>
</svg>
