<?xml version="1.0" encoding="UTF-8" standalone="no"?>
<!DOCTYPE svg PUBLIC "-//W3C//DTD SVG 1.1//EN"
 "http://www.w3.org/Graphics/SVG/1.1/DTD/svg11.dtd">
<!-- Generated by graphviz version 2.47.0 (20210316.0004)
 -->
<!-- Title: dependencies Pages: 1 -->
<svg width="504pt" height="211pt"
 viewBox="0.00 0.00 504.00 211.00" xmlns="http://www.w3.org/2000/svg" xmlns:xlink="http://www.w3.org/1999/xlink">
<g id="graph0" class="graph" transform="scale(1 1) rotate(0) translate(4 207)">
<title>dependencies</title>
<polygon fill="white" stroke="transparent" points="-4,4 -4,-207 500,-207 500,4 -4,4"/>
<text text-anchor="start" x="227.01" y="-42.4" font-family="Times-12" font-weight="bold" font-size="14.00">Legend</text>
<polygon fill="#ffffb3" stroke="transparent" points="14,-10 14,-30 34,-30 34,-10 14,-10"/>
<text text-anchor="start" x="37.63" y="-15.4" font-family="Times-12" font-size="14.00"> &#160;Declarations</text>
<polygon fill="#8dd3c7" stroke="transparent" points="127,-10 127,-30 147,-30 147,-10 127,-10"/>
<text text-anchor="start" x="150.73" y="-15.4" font-family="Times-12" font-size="14.00"> &#160;Module</text>
<polygon fill="#80b1d3" stroke="transparent" points="213,-10 213,-30 233,-30 233,-10 213,-10"/>
<text text-anchor="start" x="236.78" y="-15.4" font-family="Times-12" font-size="14.00"> &#160;Bootstrap</text>
<polygon fill="#fdb462" stroke="transparent" points="310,-10 310,-30 330,-30 330,-10 310,-10"/>
<text text-anchor="start" x="333.67" y="-15.4" font-family="Times-12" font-size="14.00"> &#160;Providers</text>
<polygon fill="#fb8072" stroke="transparent" points="406,-10 406,-30 426,-30 426,-10 406,-10"/>
<text text-anchor="start" x="429.73" y="-15.4" font-family="Times-12" font-size="14.00"> &#160;Exports</text>
<g id="clust1" class="cluster">
<title>cluster_ServicesModule</title>
<polygon fill="none" stroke="black" stroke-dasharray="1,5" points="98,-70 98,-195 398,-195 398,-70 98,-70"/>
</g>
<g id="clust6" class="cluster">
<title>cluster_ServicesModule_providers</title>
<polygon fill="none" stroke="black" points="106,-78 106,-130 390,-130 390,-78 106,-78"/>
</g>
<!-- CryptoService -->
<g id="node1" class="node">
<title>CryptoService</title>
<ellipse fill="#fdb462" stroke="black" cx="315" cy="-104" rx="66.63" ry="18"/>
<text text-anchor="middle" x="315" y="-99.8" font-family="Times,serif" font-size="14.00">CryptoService</text>
</g>
<!-- ServicesModule -->
<g id="node3" class="node">
<title>ServicesModule</title>
<polygon fill="#8dd3c7" stroke="black" points="296.47,-187 293.47,-191 272.47,-191 269.47,-187 189.53,-187 189.53,-151 296.47,-151 296.47,-187"/>
<text text-anchor="middle" x="243" y="-164.8" font-family="Times,serif" font-size="14.00">ServicesModule</text>
</g>
<!-- CryptoService&#45;&gt;ServicesModule -->
<g id="edge1" class="edge">
<title>CryptoService&#45;&gt;ServicesModule</title>
<path fill="none" stroke="black" d="M272.34,-118.1C272.34,-118.1 272.34,-140.72 272.34,-140.72"/>
<polygon fill="black" stroke="black" points="268.84,-140.72 272.34,-150.72 275.84,-140.72 268.84,-140.72"/>
</g>
<!-- DateService -->
<g id="node2" class="node">
<title>DateService</title>
<ellipse fill="#fdb462" stroke="black" cx="172" cy="-104" rx="58.44" ry="18"/>
<text text-anchor="middle" x="172" y="-99.8" font-family="Times,serif" font-size="14.00">DateService</text>
</g>
<!-- DateService&#45;&gt;ServicesModule -->
<g id="edge2" class="edge">
<title>DateService&#45;&gt;ServicesModule</title>
<path fill="none" stroke="black" d="M209.87,-117.78C209.87,-117.78 209.87,-140.55 209.87,-140.55"/>
<polygon fill="black" stroke="black" points="206.37,-140.55 209.87,-150.55 213.37,-140.55 206.37,-140.55"/>
</g>
</g>
</svg>
