<?xml version="1.0" encoding="UTF-8" standalone="no"?>
<!DOCTYPE svg PUBLIC "-//W3C//DTD SVG 1.1//EN"
 "http://www.w3.org/Graphics/SVG/1.1/DTD/svg11.dtd">
<!-- Generated by graphviz version 2.47.0 (20210316.0004)
 -->
<!-- Title: dependencies Pages: 1 -->
<svg width="2503pt" height="352pt"
 viewBox="0.00 0.00 2503.00 352.00" xmlns="http://www.w3.org/2000/svg" xmlns:xlink="http://www.w3.org/1999/xlink">
<g id="graph0" class="graph" transform="scale(1 1) rotate(0) translate(4 348)">
<title>dependencies</title>
<polygon fill="white" stroke="transparent" points="-4,4 -4,-348 2499,-348 2499,4 -4,4"/>
<text text-anchor="start" x="1226.51" y="-42.4" font-family="Times-12" font-weight="bold" font-size="14.00">Legend</text>
<polygon fill="#ffffb3" stroke="transparent" points="1013.5,-10 1013.5,-30 1033.5,-30 1033.5,-10 1013.5,-10"/>
<text text-anchor="start" x="1037.13" y="-15.4" font-family="Times-12" font-size="14.00"> &#160;Declarations</text>
<polygon fill="#8dd3c7" stroke="transparent" points="1126.5,-10 1126.5,-30 1146.5,-30 1146.5,-10 1126.5,-10"/>
<text text-anchor="start" x="1150.23" y="-15.4" font-family="Times-12" font-size="14.00"> &#160;Module</text>
<polygon fill="#80b1d3" stroke="transparent" points="1212.5,-10 1212.5,-30 1232.5,-30 1232.5,-10 1212.5,-10"/>
<text text-anchor="start" x="1236.28" y="-15.4" font-family="Times-12" font-size="14.00"> &#160;Bootstrap</text>
<polygon fill="#fdb462" stroke="transparent" points="1309.5,-10 1309.5,-30 1329.5,-30 1329.5,-10 1309.5,-10"/>
<text text-anchor="start" x="1333.17" y="-15.4" font-family="Times-12" font-size="14.00"> &#160;Providers</text>
<polygon fill="#fb8072" stroke="transparent" points="1405.5,-10 1405.5,-30 1425.5,-30 1425.5,-10 1405.5,-10"/>
<text text-anchor="start" x="1429.23" y="-15.4" font-family="Times-12" font-size="14.00"> &#160;Exports</text>
<g id="clust1" class="cluster">
<title>cluster_AppModule</title>
<polygon fill="none" stroke="black" stroke-dasharray="1,5" points="1060,-146 1060,-336 2095,-336 2095,-146 1060,-146"/>
</g>
<g id="clust3" class="cluster">
<title>cluster_AppModule_imports</title>
<polygon fill="none" stroke="black" points="1068,-154 1068,-271 2087,-271 2087,-154 1068,-154"/>
</g>
<g id="clust7" class="cluster">
<title>cluster_AuthenticationModule</title>
<polygon fill="none" stroke="black" stroke-dasharray="1,5" points="8,-70 8,-138 1329,-138 1329,-70 8,-70"/>
</g>
<g id="clust10" class="cluster">
<title>cluster_AuthenticationModule_exports</title>
<polygon fill="none" stroke="black" points="16,-78 16,-130 176,-130 176,-78 16,-78"/>
</g>
<g id="clust12" class="cluster">
<title>cluster_AuthenticationModule_providers</title>
<polygon fill="none" stroke="black" points="184,-78 184,-130 1321,-130 1321,-78 184,-78"/>
</g>
<g id="clust13" class="cluster">
<title>cluster_MilestoneEstimateModule</title>
<polygon fill="none" stroke="black" stroke-dasharray="1,5" points="1337,-70 1337,-138 1593,-138 1593,-70 1337,-70"/>
</g>
<g id="clust18" class="cluster">
<title>cluster_MilestoneEstimateModule_providers</title>
<polygon fill="none" stroke="black" points="1345,-78 1345,-130 1585,-130 1585,-78 1345,-78"/>
</g>
<g id="clust25" class="cluster">
<title>cluster_ProjectMemberModule</title>
<polygon fill="none" stroke="black" stroke-dasharray="1,5" points="1601,-70 1601,-138 1833,-138 1833,-70 1601,-70"/>
</g>
<g id="clust30" class="cluster">
<title>cluster_ProjectMemberModule_providers</title>
<polygon fill="none" stroke="black" points="1609,-78 1609,-130 1825,-130 1825,-78 1609,-78"/>
</g>
<g id="clust31" class="cluster">
<title>cluster_ProjectMilestoneModule</title>
<polygon fill="none" stroke="black" stroke-dasharray="1,5" points="1841,-70 1841,-138 2085,-138 2085,-70 1841,-70"/>
</g>
<g id="clust36" class="cluster">
<title>cluster_ProjectMilestoneModule_providers</title>
<polygon fill="none" stroke="black" points="1849,-78 1849,-130 2077,-130 2077,-78 1849,-78"/>
</g>
<g id="clust37" class="cluster">
<title>cluster_ProjectModule</title>
<polygon fill="none" stroke="black" stroke-dasharray="1,5" points="2093,-70 2093,-138 2259,-138 2259,-70 2093,-70"/>
</g>
<g id="clust42" class="cluster">
<title>cluster_ProjectModule_providers</title>
<polygon fill="none" stroke="black" points="2101,-78 2101,-130 2251,-130 2251,-78 2101,-78"/>
</g>
<g id="clust43" class="cluster">
<title>cluster_ProjectReportModule</title>
<polygon fill="none" stroke="black" stroke-dasharray="1,5" points="2267,-70 2267,-138 2487,-138 2487,-70 2267,-70"/>
</g>
<g id="clust48" class="cluster">
<title>cluster_ProjectReportModule_providers</title>
<polygon fill="none" stroke="black" points="2275,-78 2275,-130 2479,-130 2479,-78 2275,-78"/>
</g>
<g id="clust55" class="cluster">
<title>cluster_UserModule</title>
<polygon fill="none" stroke="black" stroke-dasharray="1,5" points="2103,-211 2103,-279 2363,-279 2363,-211 2103,-211"/>
</g>
<g id="clust58" class="cluster">
<title>cluster_UserModule_exports</title>
<polygon fill="none" stroke="black" points="2251,-219 2251,-271 2355,-271 2355,-219 2251,-219"/>
</g>
<g id="clust60" class="cluster">
<title>cluster_UserModule_providers</title>
<polygon fill="none" stroke="black" points="2111,-219 2111,-271 2243,-271 2243,-219 2111,-219"/>
</g>
<!-- AuthenticationModule -->
<g id="node1" class="node">
<title>AuthenticationModule</title>
<polygon fill="#8dd3c7" stroke="black" points="1218.25,-263 1215.25,-267 1194.25,-267 1191.25,-263 1075.75,-263 1075.75,-227 1218.25,-227 1218.25,-263"/>
<text text-anchor="middle" x="1147" y="-240.8" font-family="Times,serif" font-size="14.00">AuthenticationModule</text>
</g>
<!-- AppModule -->
<g id="node10" class="node">
<title>AppModule</title>
<polygon fill="#8dd3c7" stroke="black" points="1575.66,-328 1572.66,-332 1551.66,-332 1548.66,-328 1492.34,-328 1492.34,-292 1575.66,-292 1575.66,-328"/>
<text text-anchor="middle" x="1534" y="-305.8" font-family="Times,serif" font-size="14.00">AppModule</text>
</g>
<!-- AuthenticationModule&#45;&gt;AppModule -->
<g id="edge1" class="edge">
<title>AuthenticationModule&#45;&gt;AppModule</title>
<path fill="none" stroke="black" d="M1147,-263.29C1147,-285.21 1147,-319 1147,-319 1147,-319 1482.22,-319 1482.22,-319"/>
<polygon fill="black" stroke="black" points="1482.22,-322.5 1492.22,-319 1482.22,-315.5 1482.22,-322.5"/>
</g>
<!-- AuthenticationService  -->
<g id="node11" class="node">
<title>AuthenticationService </title>
<polygon fill="#fb8072" stroke="black" points="168.18,-122 23.82,-122 23.82,-86 168.18,-86 168.18,-122"/>
<text text-anchor="middle" x="96" y="-99.8" font-family="Times,serif" font-size="14.00">AuthenticationService </text>
</g>
<!-- AuthenticationModule&#45;&gt;AuthenticationService  -->
<g id="edge11" class="edge">
<title>AuthenticationModule&#45;&gt;AuthenticationService </title>
<path fill="none" stroke="black" stroke-dasharray="5,2" d="M1075.59,-258C839.03,-258 96,-258 96,-258 96,-258 96,-132.27 96,-132.27"/>
<polygon fill="black" stroke="black" points="99.5,-132.27 96,-122.27 92.5,-132.27 99.5,-132.27"/>
</g>
<!-- MilestoneEstimateModule -->
<g id="node2" class="node">
<title>MilestoneEstimateModule</title>
<polygon fill="#8dd3c7" stroke="black" points="1365.03,-198 1362.03,-202 1341.03,-202 1338.03,-198 1200.97,-198 1200.97,-162 1365.03,-162 1365.03,-198"/>
<text text-anchor="middle" x="1283" y="-175.8" font-family="Times,serif" font-size="14.00">MilestoneEstimateModule</text>
</g>
<!-- MilestoneEstimateModule&#45;&gt;AppModule -->
<g id="edge2" class="edge">
<title>MilestoneEstimateModule&#45;&gt;AppModule</title>
<path fill="none" stroke="black" d="M1291.82,-198.08C1291.82,-233.8 1291.82,-310 1291.82,-310 1291.82,-310 1482.09,-310 1482.09,-310"/>
<polygon fill="black" stroke="black" points="1482.09,-313.5 1492.09,-310 1482.09,-306.5 1482.09,-313.5"/>
</g>
<!-- ProfileModule -->
<g id="node3" class="node">
<title>ProfileModule</title>
<polygon fill="#8dd3c7" stroke="black" points="1474.65,-263 1471.65,-267 1450.65,-267 1447.65,-263 1377.35,-263 1377.35,-227 1474.65,-227 1474.65,-263"/>
<text text-anchor="middle" x="1426" y="-240.8" font-family="Times,serif" font-size="14.00">ProfileModule</text>
</g>
<!-- ProfileModule&#45;&gt;AppModule -->
<g id="edge3" class="edge">
<title>ProfileModule&#45;&gt;AppModule</title>
<path fill="none" stroke="black" d="M1474.89,-251C1494.74,-251 1513.09,-251 1513.09,-251 1513.09,-251 1513.09,-281.98 1513.09,-281.98"/>
<polygon fill="black" stroke="black" points="1509.59,-281.98 1513.09,-291.98 1516.59,-281.98 1509.59,-281.98"/>
</g>
<!-- ProjectMemberModule -->
<g id="node4" class="node">
<title>ProjectMemberModule</title>
<polygon fill="#8dd3c7" stroke="black" points="1633.13,-198 1630.13,-202 1609.13,-202 1606.13,-198 1486.87,-198 1486.87,-162 1633.13,-162 1633.13,-198"/>
<text text-anchor="middle" x="1560" y="-175.8" font-family="Times,serif" font-size="14.00">ProjectMemberModule</text>
</g>
<!-- ProjectMemberModule&#45;&gt;AppModule -->
<g id="edge4" class="edge">
<title>ProjectMemberModule&#45;&gt;AppModule</title>
<path fill="none" stroke="black" d="M1554.91,-198.08C1554.91,-198.08 1554.91,-281.66 1554.91,-281.66"/>
<polygon fill="black" stroke="black" points="1551.41,-281.66 1554.91,-291.66 1558.41,-281.66 1551.41,-281.66"/>
</g>
<!-- ProjectMilestoneModule -->
<g id="node5" class="node">
<title>ProjectMilestoneModule</title>
<polygon fill="#8dd3c7" stroke="black" points="1806.69,-198 1803.69,-202 1782.69,-202 1779.69,-198 1651.31,-198 1651.31,-162 1806.69,-162 1806.69,-198"/>
<text text-anchor="middle" x="1729" y="-175.8" font-family="Times,serif" font-size="14.00">ProjectMilestoneModule</text>
</g>
<!-- ProjectMilestoneModule&#45;&gt;AppModule -->
<g id="edge5" class="edge">
<title>ProjectMilestoneModule&#45;&gt;AppModule</title>
<path fill="none" stroke="black" d="M1729,-198.11C1729,-231.87 1729,-301 1729,-301 1729,-301 1585.83,-301 1585.83,-301"/>
<polygon fill="black" stroke="black" points="1585.83,-297.5 1575.83,-301 1585.83,-304.5 1585.83,-297.5"/>
</g>
<!-- ProjectModule -->
<g id="node6" class="node">
<title>ProjectModule</title>
<polygon fill="#8dd3c7" stroke="black" points="1923.7,-198 1920.7,-202 1899.7,-202 1896.7,-198 1824.3,-198 1824.3,-162 1923.7,-162 1923.7,-198"/>
<text text-anchor="middle" x="1874" y="-175.8" font-family="Times,serif" font-size="14.00">ProjectModule</text>
</g>
<!-- ProjectModule&#45;&gt;AppModule -->
<g id="edge6" class="edge">
<title>ProjectModule&#45;&gt;AppModule</title>
<path fill="none" stroke="black" d="M1874,-198.08C1874,-233.8 1874,-310 1874,-310 1874,-310 1585.69,-310 1585.69,-310"/>
<polygon fill="black" stroke="black" points="1585.69,-306.5 1575.69,-310 1585.69,-313.5 1585.69,-306.5"/>
</g>
<!-- ProjectReportModule -->
<g id="node7" class="node">
<title>ProjectReportModule</title>
<polygon fill="#8dd3c7" stroke="black" points="2078.81,-198 2075.81,-202 2054.81,-202 2051.81,-198 1941.19,-198 1941.19,-162 2078.81,-162 2078.81,-198"/>
<text text-anchor="middle" x="2010" y="-175.8" font-family="Times,serif" font-size="14.00">ProjectReportModule</text>
</g>
<!-- ProjectReportModule&#45;&gt;AppModule -->
<g id="edge7" class="edge">
<title>ProjectReportModule&#45;&gt;AppModule</title>
<path fill="none" stroke="black" d="M2010,-198.17C2010,-235.85 2010,-319 2010,-319 2010,-319 1585.82,-319 1585.82,-319"/>
<polygon fill="black" stroke="black" points="1585.82,-315.5 1575.82,-319 1585.82,-322.5 1585.82,-315.5"/>
</g>
<!-- ServicesModule -->
<g id="node8" class="node">
<title>ServicesModule</title>
<polygon fill="#8dd3c7" stroke="black" points="1182.47,-198 1179.47,-202 1158.47,-202 1155.47,-198 1075.53,-198 1075.53,-162 1182.47,-162 1182.47,-198"/>
<text text-anchor="middle" x="1129" y="-175.8" font-family="Times,serif" font-size="14.00">ServicesModule</text>
</g>
<!-- ServicesModule&#45;&gt;AppModule -->
<g id="edge8" class="edge">
<title>ServicesModule&#45;&gt;AppModule</title>
<path fill="none" stroke="black" d="M1129.05,-198.11C1129.05,-207.9 1129.05,-218 1129.05,-218 1129.05,-218 1534,-218 1534,-218 1534,-218 1534,-281.82 1534,-281.82"/>
<polygon fill="black" stroke="black" points="1530.5,-281.82 1534,-291.82 1537.5,-281.82 1530.5,-281.82"/>
</g>
<!-- UserModule -->
<g id="node9" class="node">
<title>UserModule</title>
<polygon fill="#8dd3c7" stroke="black" points="1468.98,-198 1465.98,-202 1444.98,-202 1441.98,-198 1383.02,-198 1383.02,-162 1468.98,-162 1468.98,-198"/>
<text text-anchor="middle" x="1426" y="-175.8" font-family="Times,serif" font-size="14.00">UserModule</text>
</g>
<!-- UserModule&#45;&gt;AuthenticationModule -->
<g id="edge10" class="edge">
<title>UserModule&#45;&gt;AuthenticationModule</title>
<path fill="none" stroke="black" d="M1382.84,-180C1376.05,-180 1371.22,-180 1371.22,-180 1371.22,-180 1371.22,-245 1371.22,-245 1371.22,-245 1228.56,-245 1228.56,-245"/>
<polygon fill="black" stroke="black" points="1228.56,-241.5 1218.56,-245 1228.56,-248.5 1228.56,-241.5"/>
</g>
<!-- UserModule&#45;&gt;ProfileModule -->
<g id="edge19" class="edge">
<title>UserModule&#45;&gt;ProfileModule</title>
<path fill="none" stroke="black" d="M1411.67,-198.11C1411.67,-198.11 1411.67,-216.99 1411.67,-216.99"/>
<polygon fill="black" stroke="black" points="1408.17,-216.99 1411.67,-226.99 1415.17,-216.99 1408.17,-216.99"/>
</g>
<!-- UserModule&#45;&gt;AppModule -->
<g id="edge9" class="edge">
<title>UserModule&#45;&gt;AppModule</title>
<path fill="none" stroke="black" d="M1469.1,-186C1474.83,-186 1478.78,-186 1478.78,-186 1478.78,-186 1478.78,-301 1478.78,-301 1478.78,-301 1482.15,-301 1482.15,-301"/>
<polygon fill="black" stroke="black" points="1482.15,-304.5 1492.15,-301 1482.15,-297.5 1482.15,-304.5"/>
</g>
<!-- UserService  -->
<g id="node23" class="node">
<title>UserService </title>
<polygon fill="#fb8072" stroke="black" points="2346.9,-263 2259.1,-263 2259.1,-227 2346.9,-227 2346.9,-263"/>
<text text-anchor="middle" x="2303" y="-240.8" font-family="Times,serif" font-size="14.00">UserService </text>
</g>
<!-- UserModule&#45;&gt;UserService  -->
<g id="edge28" class="edge">
<title>UserModule&#45;&gt;UserService </title>
<path fill="none" stroke="black" stroke-dasharray="5,2" d="M1440.33,-198.21C1440.33,-203.55 1440.33,-208 1440.33,-208 1440.33,-208 2271.21,-208 2271.21,-208 2271.21,-208 2271.21,-216.93 2271.21,-216.93"/>
<polygon fill="black" stroke="black" points="2267.71,-216.93 2271.21,-226.93 2274.71,-216.93 2267.71,-216.93"/>
</g>
<!-- AccessTokenStrategy -->
<g id="node12" class="node">
<title>AccessTokenStrategy</title>
<ellipse fill="#fdb462" stroke="black" cx="287" cy="-104" rx="95.46" ry="18"/>
<text text-anchor="middle" x="287" y="-99.8" font-family="Times,serif" font-size="14.00">AccessTokenStrategy</text>
</g>
<!-- AccessTokenStrategy&#45;&gt;AuthenticationModule -->
<g id="edge12" class="edge">
<title>AccessTokenStrategy&#45;&gt;AuthenticationModule</title>
<path fill="none" stroke="black" d="M287,-122.27C287,-162.06 287,-253 287,-253 287,-253 1065.52,-253 1065.52,-253"/>
<polygon fill="black" stroke="black" points="1065.52,-256.5 1075.52,-253 1065.52,-249.5 1065.52,-256.5"/>
</g>
<!-- AuthenticationService -->
<g id="node13" class="node">
<title>AuthenticationService</title>
<ellipse fill="#fdb462" stroke="black" cx="498" cy="-104" rx="97.27" ry="18"/>
<text text-anchor="middle" x="498" y="-99.8" font-family="Times,serif" font-size="14.00">AuthenticationService</text>
</g>
<!-- AuthenticationService&#45;&gt;AuthenticationModule -->
<g id="edge13" class="edge">
<title>AuthenticationService&#45;&gt;AuthenticationModule</title>
<path fill="none" stroke="black" d="M498,-122.24C498,-160.99 498,-248 498,-248 498,-248 1065.69,-248 1065.69,-248"/>
<polygon fill="black" stroke="black" points="1065.69,-251.5 1075.69,-248 1065.69,-244.5 1065.69,-251.5"/>
</g>
<!-- CryptoService -->
<g id="node14" class="node">
<title>CryptoService</title>
<ellipse fill="#fdb462" stroke="black" cx="894" cy="-104" rx="66.63" ry="18"/>
<text text-anchor="middle" x="894" y="-99.8" font-family="Times,serif" font-size="14.00">CryptoService</text>
</g>
<!-- CryptoService&#45;&gt;AuthenticationModule -->
<g id="edge14" class="edge">
<title>CryptoService&#45;&gt;AuthenticationModule</title>
<path fill="none" stroke="black" d="M871.73,-120.97C871.73,-157.03 871.73,-238 871.73,-238 871.73,-238 1065.39,-238 1065.39,-238"/>
<polygon fill="black" stroke="black" points="1065.39,-241.5 1075.39,-238 1065.39,-234.5 1065.39,-241.5"/>
</g>
<!-- CryptoService&#45;&gt;ServicesModule -->
<g id="edge26" class="edge">
<title>CryptoService&#45;&gt;ServicesModule</title>
<path fill="none" stroke="black" d="M916.27,-121.25C916.27,-143.67 916.27,-180 916.27,-180 916.27,-180 1065.32,-180 1065.32,-180"/>
<polygon fill="black" stroke="black" points="1065.32,-183.5 1075.32,-180 1065.32,-176.5 1065.32,-183.5"/>
</g>
<!-- DateService -->
<g id="node15" class="node">
<title>DateService</title>
<ellipse fill="#fdb462" stroke="black" cx="1037" cy="-104" rx="58.44" ry="18"/>
<text text-anchor="middle" x="1037" y="-99.8" font-family="Times,serif" font-size="14.00">DateService</text>
</g>
<!-- DateService&#45;&gt;AuthenticationModule -->
<g id="edge15" class="edge">
<title>DateService&#45;&gt;AuthenticationModule</title>
<path fill="none" stroke="black" d="M1027.15,-121.94C1027.15,-157.38 1027.15,-233 1027.15,-233 1027.15,-233 1065.55,-233 1065.55,-233"/>
<polygon fill="black" stroke="black" points="1065.55,-236.5 1075.55,-233 1065.55,-229.5 1065.55,-236.5"/>
</g>
<!-- DateService&#45;&gt;ServicesModule -->
<g id="edge27" class="edge">
<title>DateService&#45;&gt;ServicesModule</title>
<path fill="none" stroke="black" d="M1085.37,-114.25C1085.37,-114.25 1085.37,-151.77 1085.37,-151.77"/>
<polygon fill="black" stroke="black" points="1081.87,-151.77 1085.37,-161.77 1088.87,-151.77 1081.87,-151.77"/>
</g>
<!-- RefreshTokenStrategy -->
<g id="node16" class="node">
<title>RefreshTokenStrategy</title>
<ellipse fill="#fdb462" stroke="black" cx="711" cy="-104" rx="97.83" ry="18"/>
<text text-anchor="middle" x="711" y="-99.8" font-family="Times,serif" font-size="14.00">RefreshTokenStrategy</text>
</g>
<!-- RefreshTokenStrategy&#45;&gt;AuthenticationModule -->
<g id="edge16" class="edge">
<title>RefreshTokenStrategy&#45;&gt;AuthenticationModule</title>
<path fill="none" stroke="black" d="M711,-122.17C711,-159.85 711,-243 711,-243 711,-243 1065.49,-243 1065.49,-243"/>
<polygon fill="black" stroke="black" points="1065.49,-246.5 1075.49,-243 1065.49,-239.5 1065.49,-246.5"/>
</g>
<!-- TokenWhitelistService -->
<g id="node17" class="node">
<title>TokenWhitelistService</title>
<ellipse fill="#fdb462" stroke="black" cx="1213" cy="-104" rx="100.14" ry="18"/>
<text text-anchor="middle" x="1213" y="-99.8" font-family="Times,serif" font-size="14.00">TokenWhitelistService</text>
</g>
<!-- TokenWhitelistService&#45;&gt;AuthenticationModule -->
<g id="edge17" class="edge">
<title>TokenWhitelistService&#45;&gt;AuthenticationModule</title>
<path fill="none" stroke="black" d="M1191.61,-121.86C1191.61,-121.86 1191.61,-216.84 1191.61,-216.84"/>
<polygon fill="black" stroke="black" points="1188.11,-216.84 1191.61,-226.84 1195.11,-216.84 1188.11,-216.84"/>
</g>
<!-- MilestoneEstimateService -->
<g id="node18" class="node">
<title>MilestoneEstimateService</title>
<ellipse fill="#fdb462" stroke="black" cx="1465" cy="-104" rx="112.31" ry="18"/>
<text text-anchor="middle" x="1465" y="-99.8" font-family="Times,serif" font-size="14.00">MilestoneEstimateService</text>
</g>
<!-- MilestoneEstimateService&#45;&gt;MilestoneEstimateModule -->
<g id="edge18" class="edge">
<title>MilestoneEstimateService&#45;&gt;MilestoneEstimateModule</title>
<path fill="none" stroke="black" d="M1358.93,-109.96C1358.93,-109.96 1358.93,-151.93 1358.93,-151.93"/>
<polygon fill="black" stroke="black" points="1355.43,-151.93 1358.93,-161.93 1362.43,-151.93 1355.43,-151.93"/>
</g>
<!-- ProjectMemberService -->
<g id="node19" class="node">
<title>ProjectMemberService</title>
<ellipse fill="#fdb462" stroke="black" cx="1717" cy="-104" rx="100.11" ry="18"/>
<text text-anchor="middle" x="1717" y="-99.8" font-family="Times,serif" font-size="14.00">ProjectMemberService</text>
</g>
<!-- ProjectMemberService&#45;&gt;ProjectMemberModule -->
<g id="edge20" class="edge">
<title>ProjectMemberService&#45;&gt;ProjectMemberModule</title>
<path fill="none" stroke="black" d="M1625.13,-111.29C1625.13,-111.29 1625.13,-151.73 1625.13,-151.73"/>
<polygon fill="black" stroke="black" points="1621.63,-151.73 1625.13,-161.73 1628.63,-151.73 1621.63,-151.73"/>
</g>
<!-- ProjectMemberService&#45;&gt;ProjectModule -->
<g id="edge22" class="edge">
<title>ProjectMemberService&#45;&gt;ProjectModule</title>
<path fill="none" stroke="black" d="M1811.83,-109.9C1811.83,-128.7 1811.83,-186 1811.83,-186 1811.83,-186 1814.11,-186 1814.11,-186"/>
<polygon fill="black" stroke="black" points="1814.11,-189.5 1824.11,-186 1814.11,-182.5 1814.11,-189.5"/>
</g>
<!-- ProjectMilestoneService -->
<g id="node20" class="node">
<title>ProjectMilestoneService</title>
<ellipse fill="#fdb462" stroke="black" cx="1963" cy="-104" rx="105.93" ry="18"/>
<text text-anchor="middle" x="1963" y="-99.8" font-family="Times,serif" font-size="14.00">ProjectMilestoneService</text>
</g>
<!-- ProjectMilestoneService&#45;&gt;ProjectMilestoneModule -->
<g id="edge21" class="edge">
<title>ProjectMilestoneService&#45;&gt;ProjectMilestoneModule</title>
<path fill="none" stroke="black" d="M1857,-104C1836.23,-104 1820.73,-104 1820.73,-104 1820.73,-104 1820.73,-174 1820.73,-174 1820.73,-174 1816.8,-174 1816.8,-174"/>
<polygon fill="black" stroke="black" points="1816.8,-170.5 1806.8,-174 1816.8,-177.5 1816.8,-170.5"/>
</g>
<!-- ProjectMilestoneService&#45;&gt;ProjectModule -->
<g id="edge23" class="edge">
<title>ProjectMilestoneService&#45;&gt;ProjectModule</title>
<path fill="none" stroke="black" d="M1879.22,-115.21C1879.22,-115.21 1879.22,-151.96 1879.22,-151.96"/>
<polygon fill="black" stroke="black" points="1875.72,-151.96 1879.22,-161.96 1882.72,-151.96 1875.72,-151.96"/>
</g>
<!-- ProjectService -->
<g id="node21" class="node">
<title>ProjectService</title>
<ellipse fill="#fdb462" stroke="black" cx="2176" cy="-104" rx="67.19" ry="18"/>
<text text-anchor="middle" x="2176" y="-99.8" font-family="Times,serif" font-size="14.00">ProjectService</text>
</g>
<!-- ProjectService&#45;&gt;ProjectModule -->
<g id="edge24" class="edge">
<title>ProjectService&#45;&gt;ProjectModule</title>
<path fill="none" stroke="black" d="M2113.72,-110.97C2113.72,-121.94 2113.72,-142 2113.72,-142 2113.72,-142 1901.41,-142 1901.41,-142 1901.41,-142 1901.41,-151.89 1901.41,-151.89"/>
<polygon fill="black" stroke="black" points="1897.91,-151.89 1901.41,-161.89 1904.91,-151.89 1897.91,-151.89"/>
</g>
<!-- ProjectReportService -->
<g id="node22" class="node">
<title>ProjectReportService</title>
<ellipse fill="#fdb462" stroke="black" cx="2377" cy="-104" rx="93.75" ry="18"/>
<text text-anchor="middle" x="2377" y="-99.8" font-family="Times,serif" font-size="14.00">ProjectReportService</text>
</g>
<!-- ProjectReportService&#45;&gt;ProjectReportModule -->
<g id="edge25" class="edge">
<title>ProjectReportService&#45;&gt;ProjectReportModule</title>
<path fill="none" stroke="black" d="M2315.16,-117.59C2315.16,-139.45 2315.16,-180 2315.16,-180 2315.16,-180 2088.86,-180 2088.86,-180"/>
<polygon fill="black" stroke="black" points="2088.87,-176.5 2078.86,-180 2088.86,-183.5 2088.87,-176.5"/>
</g>
<!-- UserService -->
<g id="node24" class="node">
<title>UserService</title>
<ellipse fill="#fdb462" stroke="black" cx="2177" cy="-245" rx="58.44" ry="18"/>
<text text-anchor="middle" x="2177" y="-240.8" font-family="Times,serif" font-size="14.00">UserService</text>
</g>
<!-- UserService&#45;&gt;UserModule -->
<g id="edge29" class="edge">
<title>UserService&#45;&gt;UserModule</title>
<path fill="none" stroke="black" d="M2121.94,-239C1957.73,-239 1482.73,-239 1482.73,-239 1482.73,-239 1482.73,-174 1482.73,-174 1482.73,-174 1479,-174 1479,-174"/>
<polygon fill="black" stroke="black" points="1479,-170.5 1469,-174 1479,-177.5 1479,-170.5"/>
</g>
</g>
</svg>
