<?xml version="1.0" encoding="UTF-8" standalone="no"?>
<!DOCTYPE svg PUBLIC "-//W3C//DTD SVG 1.1//EN"
 "http://www.w3.org/Graphics/SVG/1.1/DTD/svg11.dtd">
<!-- Generated by graphviz version 2.47.0 (20210316.0004)
 -->
<!-- Title: dependencies Pages: 1 -->
<svg width="1287pt" height="284pt"
 viewBox="0.00 0.00 1287.00 284.00" xmlns="http://www.w3.org/2000/svg" xmlns:xlink="http://www.w3.org/1999/xlink">
<g id="graph0" class="graph" transform="scale(1 1) rotate(0) translate(4 280)">
<title>dependencies</title>
<polygon fill="white" stroke="transparent" points="-4,4 -4,-280 1283,-280 1283,4 -4,4"/>
<text text-anchor="start" x="618.51" y="-42.4" font-family="Times-12" font-weight="bold" font-size="14.00">Legend</text>
<polygon fill="#ffffb3" stroke="transparent" points="405.5,-10 405.5,-30 425.5,-30 425.5,-10 405.5,-10"/>
<text text-anchor="start" x="429.13" y="-15.4" font-family="Times-12" font-size="14.00"> &#160;Declarations</text>
<polygon fill="#8dd3c7" stroke="transparent" points="518.5,-10 518.5,-30 538.5,-30 538.5,-10 518.5,-10"/>
<text text-anchor="start" x="542.23" y="-15.4" font-family="Times-12" font-size="14.00"> &#160;Module</text>
<polygon fill="#80b1d3" stroke="transparent" points="604.5,-10 604.5,-30 624.5,-30 624.5,-10 604.5,-10"/>
<text text-anchor="start" x="628.28" y="-15.4" font-family="Times-12" font-size="14.00"> &#160;Bootstrap</text>
<polygon fill="#fdb462" stroke="transparent" points="701.5,-10 701.5,-30 721.5,-30 721.5,-10 701.5,-10"/>
<text text-anchor="start" x="725.17" y="-15.4" font-family="Times-12" font-size="14.00"> &#160;Providers</text>
<polygon fill="#fb8072" stroke="transparent" points="797.5,-10 797.5,-30 817.5,-30 817.5,-10 797.5,-10"/>
<text text-anchor="start" x="821.23" y="-15.4" font-family="Times-12" font-size="14.00"> &#160;Exports</text>
<g id="clust1" class="cluster">
<title>cluster_AuthenticationModule</title>
<polygon fill="none" stroke="black" stroke-dasharray="1,5" points="8,-70 8,-268 1271,-268 1271,-70 8,-70"/>
</g>
<g id="clust3" class="cluster">
<title>cluster_AuthenticationModule_imports</title>
<polygon fill="none" stroke="black" points="1161,-78 1161,-130 1263,-130 1263,-78 1161,-78"/>
</g>
<g id="clust4" class="cluster">
<title>cluster_AuthenticationModule_exports</title>
<polygon fill="none" stroke="black" points="577,-208 577,-260 737,-260 737,-208 577,-208"/>
</g>
<g id="clust6" class="cluster">
<title>cluster_AuthenticationModule_providers</title>
<polygon fill="none" stroke="black" points="16,-78 16,-130 1153,-130 1153,-78 16,-78"/>
</g>
<!-- UserModule -->
<g id="node1" class="node">
<title>UserModule</title>
<polygon fill="#8dd3c7" stroke="black" points="1254.98,-122 1251.98,-126 1230.98,-126 1227.98,-122 1169.02,-122 1169.02,-86 1254.98,-86 1254.98,-122"/>
<text text-anchor="middle" x="1212" y="-99.8" font-family="Times,serif" font-size="14.00">UserModule</text>
</g>
<!-- AuthenticationModule -->
<g id="node2" class="node">
<title>AuthenticationModule</title>
<polygon fill="#8dd3c7" stroke="black" points="728.25,-187 725.25,-191 704.25,-191 701.25,-187 585.75,-187 585.75,-151 728.25,-151 728.25,-187"/>
<text text-anchor="middle" x="657" y="-164.8" font-family="Times,serif" font-size="14.00">AuthenticationModule</text>
</g>
<!-- UserModule&#45;&gt;AuthenticationModule -->
<g id="edge1" class="edge">
<title>UserModule&#45;&gt;AuthenticationModule</title>
<path fill="none" stroke="black" d="M1212,-122.29C1212,-144.21 1212,-178 1212,-178 1212,-178 738.42,-178 738.42,-178"/>
<polygon fill="black" stroke="black" points="738.42,-174.5 728.42,-178 738.42,-181.5 738.42,-174.5"/>
</g>
<!-- AuthenticationService  -->
<g id="node3" class="node">
<title>AuthenticationService </title>
<polygon fill="#fb8072" stroke="black" points="729.18,-252 584.82,-252 584.82,-216 729.18,-216 729.18,-252"/>
<text text-anchor="middle" x="657" y="-229.8" font-family="Times,serif" font-size="14.00">AuthenticationService </text>
</g>
<!-- AuthenticationModule&#45;&gt;AuthenticationService  -->
<g id="edge2" class="edge">
<title>AuthenticationModule&#45;&gt;AuthenticationService </title>
<path fill="none" stroke="black" stroke-dasharray="5,2" d="M657,-187.11C657,-187.11 657,-205.99 657,-205.99"/>
<polygon fill="black" stroke="black" points="653.5,-205.99 657,-215.99 660.5,-205.99 653.5,-205.99"/>
</g>
<!-- AccessTokenStrategy -->
<g id="node4" class="node">
<title>AccessTokenStrategy</title>
<ellipse fill="#fdb462" stroke="black" cx="1050" cy="-104" rx="95.46" ry="18"/>
<text text-anchor="middle" x="1050" y="-99.8" font-family="Times,serif" font-size="14.00">AccessTokenStrategy</text>
</g>
<!-- AccessTokenStrategy&#45;&gt;AuthenticationModule -->
<g id="edge3" class="edge">
<title>AccessTokenStrategy&#45;&gt;AuthenticationModule</title>
<path fill="none" stroke="black" d="M1050,-122.11C1050,-141.34 1050,-169 1050,-169 1050,-169 738.63,-169 738.63,-169"/>
<polygon fill="black" stroke="black" points="738.63,-165.5 728.63,-169 738.63,-172.5 738.63,-165.5"/>
</g>
<!-- AuthenticationService -->
<g id="node5" class="node">
<title>AuthenticationService</title>
<ellipse fill="#fdb462" stroke="black" cx="839" cy="-104" rx="97.27" ry="18"/>
<text text-anchor="middle" x="839" y="-99.8" font-family="Times,serif" font-size="14.00">AuthenticationService</text>
</g>
<!-- AuthenticationService&#45;&gt;AuthenticationModule -->
<g id="edge4" class="edge">
<title>AuthenticationService&#45;&gt;AuthenticationModule</title>
<path fill="none" stroke="black" d="M839,-122.03C839,-138.4 839,-160 839,-160 839,-160 738.41,-160 738.41,-160"/>
<polygon fill="black" stroke="black" points="738.41,-156.5 728.41,-160 738.41,-163.5 738.41,-156.5"/>
</g>
<!-- CryptoService -->
<g id="node6" class="node">
<title>CryptoService</title>
<ellipse fill="#fdb462" stroke="black" cx="657" cy="-104" rx="66.63" ry="18"/>
<text text-anchor="middle" x="657" y="-99.8" font-family="Times,serif" font-size="14.00">CryptoService</text>
</g>
<!-- CryptoService&#45;&gt;AuthenticationModule -->
<g id="edge5" class="edge">
<title>CryptoService&#45;&gt;AuthenticationModule</title>
<path fill="none" stroke="black" d="M657,-122.11C657,-122.11 657,-140.99 657,-140.99"/>
<polygon fill="black" stroke="black" points="653.5,-140.99 657,-150.99 660.5,-140.99 653.5,-140.99"/>
</g>
<!-- DateService -->
<g id="node7" class="node">
<title>DateService</title>
<ellipse fill="#fdb462" stroke="black" cx="514" cy="-104" rx="58.44" ry="18"/>
<text text-anchor="middle" x="514" y="-99.8" font-family="Times,serif" font-size="14.00">DateService</text>
</g>
<!-- DateService&#45;&gt;AuthenticationModule -->
<g id="edge6" class="edge">
<title>DateService&#45;&gt;AuthenticationModule</title>
<path fill="none" stroke="black" d="M514,-122.03C514,-138.4 514,-160 514,-160 514,-160 575.5,-160 575.5,-160"/>
<polygon fill="black" stroke="black" points="575.5,-163.5 585.5,-160 575.5,-156.5 575.5,-163.5"/>
</g>
<!-- RefreshTokenStrategy -->
<g id="node8" class="node">
<title>RefreshTokenStrategy</title>
<ellipse fill="#fdb462" stroke="black" cx="340" cy="-104" rx="97.83" ry="18"/>
<text text-anchor="middle" x="340" y="-99.8" font-family="Times,serif" font-size="14.00">RefreshTokenStrategy</text>
</g>
<!-- RefreshTokenStrategy&#45;&gt;AuthenticationModule -->
<g id="edge7" class="edge">
<title>RefreshTokenStrategy&#45;&gt;AuthenticationModule</title>
<path fill="none" stroke="black" d="M340,-122.11C340,-141.34 340,-169 340,-169 340,-169 575.46,-169 575.46,-169"/>
<polygon fill="black" stroke="black" points="575.46,-172.5 585.46,-169 575.46,-165.5 575.46,-172.5"/>
</g>
<!-- TokenWhitelistService -->
<g id="node9" class="node">
<title>TokenWhitelistService</title>
<ellipse fill="#fdb462" stroke="black" cx="124" cy="-104" rx="100.14" ry="18"/>
<text text-anchor="middle" x="124" y="-99.8" font-family="Times,serif" font-size="14.00">TokenWhitelistService</text>
</g>
<!-- TokenWhitelistService&#45;&gt;AuthenticationModule -->
<g id="edge8" class="edge">
<title>TokenWhitelistService&#45;&gt;AuthenticationModule</title>
<path fill="none" stroke="black" d="M124,-122.29C124,-144.21 124,-178 124,-178 124,-178 575.67,-178 575.67,-178"/>
<polygon fill="black" stroke="black" points="575.67,-181.5 585.67,-178 575.67,-174.5 575.67,-181.5"/>
</g>
</g>
</svg>
