<?xml version="1.0" encoding="UTF-8" standalone="no"?>
<!DOCTYPE svg PUBLIC "-//W3C//DTD SVG 1.1//EN"
 "http://www.w3.org/Graphics/SVG/1.1/DTD/svg11.dtd">
<!-- Generated by graphviz version 2.47.0 (20210316.0004)
 -->
<!-- Title: dependencies Pages: 1 -->
<svg width="504pt" height="284pt"
 viewBox="0.00 0.00 504.00 284.00" xmlns="http://www.w3.org/2000/svg" xmlns:xlink="http://www.w3.org/1999/xlink">
<g id="graph0" class="graph" transform="scale(1 1) rotate(0) translate(4 280)">
<title>dependencies</title>
<polygon fill="white" stroke="transparent" points="-4,4 -4,-280 500,-280 500,4 -4,4"/>
<text text-anchor="start" x="227.01" y="-42.4" font-family="Times-12" font-weight="bold" font-size="14.00">Legend</text>
<polygon fill="#ffffb3" stroke="transparent" points="14,-10 14,-30 34,-30 34,-10 14,-10"/>
<text text-anchor="start" x="37.63" y="-15.4" font-family="Times-12" font-size="14.00"> &#160;Declarations</text>
<polygon fill="#8dd3c7" stroke="transparent" points="127,-10 127,-30 147,-30 147,-10 127,-10"/>
<text text-anchor="start" x="150.73" y="-15.4" font-family="Times-12" font-size="14.00"> &#160;Module</text>
<polygon fill="#80b1d3" stroke="transparent" points="213,-10 213,-30 233,-30 233,-10 213,-10"/>
<text text-anchor="start" x="236.78" y="-15.4" font-family="Times-12" font-size="14.00"> &#160;Bootstrap</text>
<polygon fill="#fdb462" stroke="transparent" points="310,-10 310,-30 330,-30 330,-10 310,-10"/>
<text text-anchor="start" x="333.67" y="-15.4" font-family="Times-12" font-size="14.00"> &#160;Providers</text>
<polygon fill="#fb8072" stroke="transparent" points="406,-10 406,-30 426,-30 426,-10 406,-10"/>
<text text-anchor="start" x="429.73" y="-15.4" font-family="Times-12" font-size="14.00"> &#160;Exports</text>
<g id="clust1" class="cluster">
<title>cluster_MilestoneEstimateModule</title>
<polygon fill="none" stroke="black" stroke-dasharray="1,5" points="52.5,-70 52.5,-268 443.5,-268 443.5,-70 52.5,-70"/>
</g>
<g id="clust6" class="cluster">
<title>cluster_MilestoneEstimateModule_providers</title>
<polygon fill="none" stroke="black" points="60.5,-78 60.5,-130 435.5,-130 435.5,-78 60.5,-78"/>
</g>
<g id="clust4" class="cluster">
<title>cluster_MilestoneEstimateModule_exports</title>
<polygon fill="none" stroke="black" points="171.5,-208 171.5,-260 353.5,-260 353.5,-208 171.5,-208"/>
</g>
<!-- MilestoneEstimateService  -->
<g id="node1" class="node">
<title>MilestoneEstimateService </title>
<polygon fill="#fb8072" stroke="black" points="345.96,-252 179.04,-252 179.04,-216 345.96,-216 345.96,-252"/>
<text text-anchor="middle" x="262.5" y="-229.8" font-family="Times,serif" font-size="14.00">MilestoneEstimateService </text>
</g>
<!-- MilestoneEstimateModule -->
<g id="node2" class="node">
<title>MilestoneEstimateModule</title>
<polygon fill="#8dd3c7" stroke="black" points="344.53,-187 341.53,-191 320.53,-191 317.53,-187 180.47,-187 180.47,-151 344.53,-151 344.53,-187"/>
<text text-anchor="middle" x="262.5" y="-164.8" font-family="Times,serif" font-size="14.00">MilestoneEstimateModule</text>
</g>
<!-- MilestoneEstimateModule&#45;&gt;MilestoneEstimateService  -->
<g id="edge1" class="edge">
<title>MilestoneEstimateModule&#45;&gt;MilestoneEstimateService </title>
<path fill="none" stroke="black" stroke-dasharray="5,2" d="M262.5,-187.11C262.5,-187.11 262.5,-205.99 262.5,-205.99"/>
<polygon fill="black" stroke="black" points="259,-205.99 262.5,-215.99 266,-205.99 259,-205.99"/>
</g>
<!-- DateService -->
<g id="node3" class="node">
<title>DateService</title>
<ellipse fill="#fdb462" stroke="black" cx="369.5" cy="-104" rx="58.44" ry="18"/>
<text text-anchor="middle" x="369.5" y="-99.8" font-family="Times,serif" font-size="14.00">DateService</text>
</g>
<!-- DateService&#45;&gt;MilestoneEstimateModule -->
<g id="edge2" class="edge">
<title>DateService&#45;&gt;MilestoneEstimateModule</title>
<path fill="none" stroke="black" d="M328.02,-116.84C328.02,-116.84 328.02,-140.52 328.02,-140.52"/>
<polygon fill="black" stroke="black" points="324.52,-140.52 328.02,-150.52 331.52,-140.52 324.52,-140.52"/>
</g>
<!-- MilestoneEstimateService -->
<g id="node4" class="node">
<title>MilestoneEstimateService</title>
<ellipse fill="#fdb462" stroke="black" cx="180.5" cy="-104" rx="112.31" ry="18"/>
<text text-anchor="middle" x="180.5" y="-99.8" font-family="Times,serif" font-size="14.00">MilestoneEstimateService</text>
</g>
<!-- MilestoneEstimateService&#45;&gt;MilestoneEstimateModule -->
<g id="edge3" class="edge">
<title>MilestoneEstimateService&#45;&gt;MilestoneEstimateModule</title>
<path fill="none" stroke="black" d="M236.57,-119.73C236.57,-119.73 236.57,-140.65 236.57,-140.65"/>
<polygon fill="black" stroke="black" points="233.07,-140.65 236.57,-150.65 240.07,-140.65 233.07,-140.65"/>
</g>
</g>
</svg>
