<?xml version="1.0" encoding="UTF-8" standalone="no"?>
<!DOCTYPE svg PUBLIC "-//W3C//DTD SVG 1.1//EN"
 "http://www.w3.org/Graphics/SVG/1.1/DTD/svg11.dtd">
<!-- Generated by graphviz version 2.47.0 (20210316.0004)
 -->
<!-- Title: dependencies Pages: 1 -->
<svg width="1211pt" height="211pt"
 viewBox="0.00 0.00 1211.00 211.00" xmlns="http://www.w3.org/2000/svg" xmlns:xlink="http://www.w3.org/1999/xlink">
<g id="graph0" class="graph" transform="scale(1 1) rotate(0) translate(4 207)">
<title>dependencies</title>
<polygon fill="white" stroke="transparent" points="-4,4 -4,-207 1207,-207 1207,4 -4,4"/>
<text text-anchor="start" x="580.51" y="-42.4" font-family="Times-12" font-weight="bold" font-size="14.00">Legend</text>
<polygon fill="#ffffb3" stroke="transparent" points="367.5,-10 367.5,-30 387.5,-30 387.5,-10 367.5,-10"/>
<text text-anchor="start" x="391.13" y="-15.4" font-family="Times-12" font-size="14.00"> &#160;Declarations</text>
<polygon fill="#8dd3c7" stroke="transparent" points="480.5,-10 480.5,-30 500.5,-30 500.5,-10 480.5,-10"/>
<text text-anchor="start" x="504.23" y="-15.4" font-family="Times-12" font-size="14.00"> &#160;Module</text>
<polygon fill="#80b1d3" stroke="transparent" points="566.5,-10 566.5,-30 586.5,-30 586.5,-10 566.5,-10"/>
<text text-anchor="start" x="590.28" y="-15.4" font-family="Times-12" font-size="14.00"> &#160;Bootstrap</text>
<polygon fill="#fdb462" stroke="transparent" points="663.5,-10 663.5,-30 683.5,-30 683.5,-10 663.5,-10"/>
<text text-anchor="start" x="687.17" y="-15.4" font-family="Times-12" font-size="14.00"> &#160;Providers</text>
<polygon fill="#fb8072" stroke="transparent" points="759.5,-10 759.5,-30 779.5,-30 779.5,-10 759.5,-10"/>
<text text-anchor="start" x="783.23" y="-15.4" font-family="Times-12" font-size="14.00"> &#160;Exports</text>
<g id="clust1" class="cluster">
<title>cluster_AppModule</title>
<polygon fill="none" stroke="black" stroke-dasharray="1,5" points="8,-70 8,-195 1195,-195 1195,-70 8,-70"/>
</g>
<g id="clust3" class="cluster">
<title>cluster_AppModule_imports</title>
<polygon fill="none" stroke="black" points="16,-78 16,-130 1187,-130 1187,-78 16,-78"/>
</g>
<!-- AuthenticationModule -->
<g id="node1" class="node">
<title>AuthenticationModule</title>
<polygon fill="#8dd3c7" stroke="black" points="1179.25,-122 1176.25,-126 1155.25,-126 1152.25,-122 1036.75,-122 1036.75,-86 1179.25,-86 1179.25,-122"/>
<text text-anchor="middle" x="1108" y="-99.8" font-family="Times,serif" font-size="14.00">AuthenticationModule</text>
</g>
<!-- AppModule -->
<g id="node9" class="node">
<title>AppModule</title>
<polygon fill="#8dd3c7" stroke="black" points="603.66,-187 600.66,-191 579.66,-191 576.66,-187 520.34,-187 520.34,-151 603.66,-151 603.66,-187"/>
<text text-anchor="middle" x="562" y="-164.8" font-family="Times,serif" font-size="14.00">AppModule</text>
</g>
<!-- AuthenticationModule&#45;&gt;AppModule -->
<g id="edge1" class="edge">
<title>AuthenticationModule&#45;&gt;AppModule</title>
<path fill="none" stroke="black" d="M1108,-122.29C1108,-144.21 1108,-178 1108,-178 1108,-178 613.94,-178 613.94,-178"/>
<polygon fill="black" stroke="black" points="613.94,-174.5 603.94,-178 613.94,-181.5 613.94,-174.5"/>
</g>
<!-- MilestoneEstimateModule -->
<g id="node2" class="node">
<title>MilestoneEstimateModule</title>
<polygon fill="#8dd3c7" stroke="black" points="1018.03,-122 1015.03,-126 994.03,-126 991.03,-122 853.97,-122 853.97,-86 1018.03,-86 1018.03,-122"/>
<text text-anchor="middle" x="936" y="-99.8" font-family="Times,serif" font-size="14.00">MilestoneEstimateModule</text>
</g>
<!-- MilestoneEstimateModule&#45;&gt;AppModule -->
<g id="edge2" class="edge">
<title>MilestoneEstimateModule&#45;&gt;AppModule</title>
<path fill="none" stroke="black" d="M936,-122.11C936,-141.34 936,-169 936,-169 936,-169 613.81,-169 613.81,-169"/>
<polygon fill="black" stroke="black" points="613.81,-165.5 603.81,-169 613.81,-172.5 613.81,-165.5"/>
</g>
<!-- ProfileModule -->
<g id="node3" class="node">
<title>ProfileModule</title>
<polygon fill="#8dd3c7" stroke="black" points="835.65,-122 832.65,-126 811.65,-126 808.65,-122 738.35,-122 738.35,-86 835.65,-86 835.65,-122"/>
<text text-anchor="middle" x="787" y="-99.8" font-family="Times,serif" font-size="14.00">ProfileModule</text>
</g>
<!-- ProfileModule&#45;&gt;AppModule -->
<g id="edge3" class="edge">
<title>ProfileModule&#45;&gt;AppModule</title>
<path fill="none" stroke="black" d="M787,-122.03C787,-138.4 787,-160 787,-160 787,-160 613.79,-160 613.79,-160"/>
<polygon fill="black" stroke="black" points="613.79,-156.5 603.79,-160 613.79,-163.5 613.79,-156.5"/>
</g>
<!-- ProjectMemberModule -->
<g id="node4" class="node">
<title>ProjectMemberModule</title>
<polygon fill="#8dd3c7" stroke="black" points="720.13,-122 717.13,-126 696.13,-126 693.13,-122 573.87,-122 573.87,-86 720.13,-86 720.13,-122"/>
<text text-anchor="middle" x="647" y="-99.8" font-family="Times,serif" font-size="14.00">ProjectMemberModule</text>
</g>
<!-- ProjectMemberModule&#45;&gt;AppModule -->
<g id="edge4" class="edge">
<title>ProjectMemberModule&#45;&gt;AppModule</title>
<path fill="none" stroke="black" d="M588.76,-122.11C588.76,-122.11 588.76,-140.99 588.76,-140.99"/>
<polygon fill="black" stroke="black" points="585.26,-140.99 588.76,-150.99 592.26,-140.99 585.26,-140.99"/>
</g>
<!-- ProjectMilestoneModule -->
<g id="node5" class="node">
<title>ProjectMilestoneModule</title>
<polygon fill="#8dd3c7" stroke="black" points="555.69,-122 552.69,-126 531.69,-126 528.69,-122 400.31,-122 400.31,-86 555.69,-86 555.69,-122"/>
<text text-anchor="middle" x="478" y="-99.8" font-family="Times,serif" font-size="14.00">ProjectMilestoneModule</text>
</g>
<!-- ProjectMilestoneModule&#45;&gt;AppModule -->
<g id="edge5" class="edge">
<title>ProjectMilestoneModule&#45;&gt;AppModule</title>
<path fill="none" stroke="black" d="M537.88,-122.11C537.88,-122.11 537.88,-140.99 537.88,-140.99"/>
<polygon fill="black" stroke="black" points="534.38,-140.99 537.88,-150.99 541.38,-140.99 534.38,-140.99"/>
</g>
<!-- ProjectModule -->
<g id="node6" class="node">
<title>ProjectModule</title>
<polygon fill="#8dd3c7" stroke="black" points="382.7,-122 379.7,-126 358.7,-126 355.7,-122 283.3,-122 283.3,-86 382.7,-86 382.7,-122"/>
<text text-anchor="middle" x="333" y="-99.8" font-family="Times,serif" font-size="14.00">ProjectModule</text>
</g>
<!-- ProjectModule&#45;&gt;AppModule -->
<g id="edge6" class="edge">
<title>ProjectModule&#45;&gt;AppModule</title>
<path fill="none" stroke="black" d="M333,-122.03C333,-138.4 333,-160 333,-160 333,-160 510.26,-160 510.26,-160"/>
<polygon fill="black" stroke="black" points="510.26,-163.5 520.26,-160 510.26,-156.5 510.26,-163.5"/>
</g>
<!-- ProjectReportModule -->
<g id="node7" class="node">
<title>ProjectReportModule</title>
<polygon fill="#8dd3c7" stroke="black" points="265.81,-122 262.81,-126 241.81,-126 238.81,-122 128.19,-122 128.19,-86 265.81,-86 265.81,-122"/>
<text text-anchor="middle" x="197" y="-99.8" font-family="Times,serif" font-size="14.00">ProjectReportModule</text>
</g>
<!-- ProjectReportModule&#45;&gt;AppModule -->
<g id="edge7" class="edge">
<title>ProjectReportModule&#45;&gt;AppModule</title>
<path fill="none" stroke="black" d="M197,-122.11C197,-141.34 197,-169 197,-169 197,-169 510.13,-169 510.13,-169"/>
<polygon fill="black" stroke="black" points="510.13,-172.5 520.13,-169 510.13,-165.5 510.13,-172.5"/>
</g>
<!-- UserModule -->
<g id="node8" class="node">
<title>UserModule</title>
<polygon fill="#8dd3c7" stroke="black" points="109.98,-122 106.98,-126 85.98,-126 82.98,-122 24.02,-122 24.02,-86 109.98,-86 109.98,-122"/>
<text text-anchor="middle" x="67" y="-99.8" font-family="Times,serif" font-size="14.00">UserModule</text>
</g>
<!-- UserModule&#45;&gt;AppModule -->
<g id="edge8" class="edge">
<title>UserModule&#45;&gt;AppModule</title>
<path fill="none" stroke="black" d="M67,-122.29C67,-144.21 67,-178 67,-178 67,-178 510.22,-178 510.22,-178"/>
<polygon fill="black" stroke="black" points="510.22,-181.5 520.22,-178 510.22,-174.5 510.22,-181.5"/>
</g>
</g>
</svg>
