<?xml version="1.0" encoding="UTF-8" standalone="no"?>
<!DOCTYPE svg PUBLIC "-//W3C//DTD SVG 1.1//EN"
 "http://www.w3.org/Graphics/SVG/1.1/DTD/svg11.dtd">
<!-- Generated by graphviz version 2.47.0 (20210316.0004)
 -->
<!-- Title: dependencies Pages: 1 -->
<svg width="534pt" height="284pt"
 viewBox="0.00 0.00 534.00 284.00" xmlns="http://www.w3.org/2000/svg" xmlns:xlink="http://www.w3.org/1999/xlink">
<g id="graph0" class="graph" transform="scale(1 1) rotate(0) translate(4 280)">
<title>dependencies</title>
<polygon fill="white" stroke="transparent" points="-4,4 -4,-280 530,-280 530,4 -4,4"/>
<text text-anchor="start" x="242.01" y="-42.4" font-family="Times-12" font-weight="bold" font-size="14.00">Legend</text>
<polygon fill="#ffffb3" stroke="transparent" points="29,-10 29,-30 49,-30 49,-10 29,-10"/>
<text text-anchor="start" x="52.63" y="-15.4" font-family="Times-12" font-size="14.00"> &#160;Declarations</text>
<polygon fill="#8dd3c7" stroke="transparent" points="142,-10 142,-30 162,-30 162,-10 142,-10"/>
<text text-anchor="start" x="165.73" y="-15.4" font-family="Times-12" font-size="14.00"> &#160;Module</text>
<polygon fill="#80b1d3" stroke="transparent" points="228,-10 228,-30 248,-30 248,-10 228,-10"/>
<text text-anchor="start" x="251.78" y="-15.4" font-family="Times-12" font-size="14.00"> &#160;Bootstrap</text>
<polygon fill="#fdb462" stroke="transparent" points="325,-10 325,-30 345,-30 345,-10 325,-10"/>
<text text-anchor="start" x="348.67" y="-15.4" font-family="Times-12" font-size="14.00"> &#160;Providers</text>
<polygon fill="#fb8072" stroke="transparent" points="421,-10 421,-30 441,-30 441,-10 421,-10"/>
<text text-anchor="start" x="444.73" y="-15.4" font-family="Times-12" font-size="14.00"> &#160;Exports</text>
<g id="clust1" class="cluster">
<title>cluster_ProjectModule</title>
<polygon fill="none" stroke="black" stroke-dasharray="1,5" points="8,-70 8,-268 518,-268 518,-70 8,-70"/>
</g>
<g id="clust6" class="cluster">
<title>cluster_ProjectModule_providers</title>
<polygon fill="none" stroke="black" points="360,-78 360,-130 510,-130 510,-78 360,-78"/>
</g>
<g id="clust4" class="cluster">
<title>cluster_ProjectModule_exports</title>
<polygon fill="none" stroke="black" points="212,-208 212,-260 330,-260 330,-208 212,-208"/>
</g>
<g id="clust3" class="cluster">
<title>cluster_ProjectModule_imports</title>
<polygon fill="none" stroke="black" points="16,-78 16,-130 352,-130 352,-78 16,-78"/>
</g>
<!-- ProjectMemberModule -->
<g id="node1" class="node">
<title>ProjectMemberModule</title>
<polygon fill="#8dd3c7" stroke="black" points="344.13,-122 341.13,-126 320.13,-126 317.13,-122 197.87,-122 197.87,-86 344.13,-86 344.13,-122"/>
<text text-anchor="middle" x="271" y="-99.8" font-family="Times,serif" font-size="14.00">ProjectMemberModule</text>
</g>
<!-- ProjectModule -->
<g id="node3" class="node">
<title>ProjectModule</title>
<polygon fill="#8dd3c7" stroke="black" points="320.7,-187 317.7,-191 296.7,-191 293.7,-187 221.3,-187 221.3,-151 320.7,-151 320.7,-187"/>
<text text-anchor="middle" x="271" y="-164.8" font-family="Times,serif" font-size="14.00">ProjectModule</text>
</g>
<!-- ProjectMemberModule&#45;&gt;ProjectModule -->
<g id="edge1" class="edge">
<title>ProjectMemberModule&#45;&gt;ProjectModule</title>
<path fill="none" stroke="black" d="M271,-122.11C271,-122.11 271,-140.99 271,-140.99"/>
<polygon fill="black" stroke="black" points="267.5,-140.99 271,-150.99 274.5,-140.99 267.5,-140.99"/>
</g>
<!-- ProjectMilestoneModule -->
<g id="node2" class="node">
<title>ProjectMilestoneModule</title>
<polygon fill="#8dd3c7" stroke="black" points="179.69,-122 176.69,-126 155.69,-126 152.69,-122 24.31,-122 24.31,-86 179.69,-86 179.69,-122"/>
<text text-anchor="middle" x="102" y="-99.8" font-family="Times,serif" font-size="14.00">ProjectMilestoneModule</text>
</g>
<!-- ProjectMilestoneModule&#45;&gt;ProjectModule -->
<g id="edge2" class="edge">
<title>ProjectMilestoneModule&#45;&gt;ProjectModule</title>
<path fill="none" stroke="black" d="M102,-122.11C102,-141.34 102,-169 102,-169 102,-169 211.21,-169 211.21,-169"/>
<polygon fill="black" stroke="black" points="211.21,-172.5 221.21,-169 211.21,-165.5 211.21,-172.5"/>
</g>
<!-- ProjectService  -->
<g id="node4" class="node">
<title>ProjectService </title>
<polygon fill="#fb8072" stroke="black" points="321.63,-252 220.37,-252 220.37,-216 321.63,-216 321.63,-252"/>
<text text-anchor="middle" x="271" y="-229.8" font-family="Times,serif" font-size="14.00">ProjectService </text>
</g>
<!-- ProjectModule&#45;&gt;ProjectService  -->
<g id="edge3" class="edge">
<title>ProjectModule&#45;&gt;ProjectService </title>
<path fill="none" stroke="black" stroke-dasharray="5,2" d="M271,-187.11C271,-187.11 271,-205.99 271,-205.99"/>
<polygon fill="black" stroke="black" points="267.5,-205.99 271,-215.99 274.5,-205.99 267.5,-205.99"/>
</g>
<!-- ProjectService -->
<g id="node5" class="node">
<title>ProjectService</title>
<ellipse fill="#fdb462" stroke="black" cx="435" cy="-104" rx="67.19" ry="18"/>
<text text-anchor="middle" x="435" y="-99.8" font-family="Times,serif" font-size="14.00">ProjectService</text>
</g>
<!-- ProjectService&#45;&gt;ProjectModule -->
<g id="edge4" class="edge">
<title>ProjectService&#45;&gt;ProjectModule</title>
<path fill="none" stroke="black" d="M435,-122.11C435,-141.34 435,-169 435,-169 435,-169 330.65,-169 330.65,-169"/>
<polygon fill="black" stroke="black" points="330.65,-165.5 320.65,-169 330.65,-172.5 330.65,-165.5"/>
</g>
</g>
</svg>
