<?xml version="1.0" encoding="UTF-8" standalone="no"?>
<!DOCTYPE svg PUBLIC "-//W3C//DTD SVG 1.1//EN"
 "http://www.w3.org/Graphics/SVG/1.1/DTD/svg11.dtd">
<!-- Generated by graphviz version 2.47.0 (20210316.0004)
 -->
<!-- Title: dependencies Pages: 1 -->
<svg width="534pt" height="284pt"
 viewBox="0.00 0.00 534.00 284.00" xmlns="http://www.w3.org/2000/svg" xmlns:xlink="http://www.w3.org/1999/xlink">
<g id="graph0" class="graph" transform="scale(1 1) rotate(0) translate(4 280)">
<title>dependencies</title>
<polygon fill="white" stroke="transparent" points="-4,4 -4,-280 530,-280 530,4 -4,4"/>
<text text-anchor="start" x="242.01" y="-42.4" font-family="Times-12" font-weight="bold" font-size="14.00">Legend</text>
<polygon fill="#ffffb3" stroke="transparent" points="29,-10 29,-30 49,-30 49,-10 29,-10"/>
<text text-anchor="start" x="52.63" y="-15.4" font-family="Times-12" font-size="14.00"> &#160;Declarations</text>
<polygon fill="#8dd3c7" stroke="transparent" points="142,-10 142,-30 162,-30 162,-10 142,-10"/>
<text text-anchor="start" x="165.73" y="-15.4" font-family="Times-12" font-size="14.00"> &#160;Module</text>
<polygon fill="#80b1d3" stroke="transparent" points="228,-10 228,-30 248,-30 248,-10 228,-10"/>
<text text-anchor="start" x="251.78" y="-15.4" font-family="Times-12" font-size="14.00"> &#160;Bootstrap</text>
<polygon fill="#fdb462" stroke="transparent" points="325,-10 325,-30 345,-30 345,-10 325,-10"/>
<text text-anchor="start" x="348.67" y="-15.4" font-family="Times-12" font-size="14.00"> &#160;Providers</text>
<polygon fill="#fb8072" stroke="transparent" points="421,-10 421,-30 441,-30 441,-10 421,-10"/>
<text text-anchor="start" x="444.73" y="-15.4" font-family="Times-12" font-size="14.00"> &#160;Exports</text>
<g id="clust1" class="cluster">
<title>cluster_ProjectModule</title>
<polygon fill="none" stroke="black" stroke-dasharray="1,5" points="8,-70 8,-268 518,-268 518,-70 8,-70"/>
</g>
<g id="clust3" class="cluster">
<title>cluster_ProjectModule_imports</title>
<polygon fill="none" stroke="black" points="174,-78 174,-130 510,-130 510,-78 174,-78"/>
</g>
<g id="clust4" class="cluster">
<title>cluster_ProjectModule_exports</title>
<polygon fill="none" stroke="black" points="201,-208 201,-260 319,-260 319,-208 201,-208"/>
</g>
<g id="clust6" class="cluster">
<title>cluster_ProjectModule_providers</title>
<polygon fill="none" stroke="black" points="16,-78 16,-130 166,-130 166,-78 16,-78"/>
</g>
<!-- ProjectMemberModule -->
<g id="node1" class="node">
<title>ProjectMemberModule</title>
<polygon fill="#8dd3c7" stroke="black" points="502.13,-122 499.13,-126 478.13,-126 475.13,-122 355.87,-122 355.87,-86 502.13,-86 502.13,-122"/>
<text text-anchor="middle" x="429" y="-99.8" font-family="Times,serif" font-size="14.00">ProjectMemberModule</text>
</g>
<!-- ProjectModule -->
<g id="node3" class="node">
<title>ProjectModule</title>
<polygon fill="#8dd3c7" stroke="black" points="309.7,-187 306.7,-191 285.7,-191 282.7,-187 210.3,-187 210.3,-151 309.7,-151 309.7,-187"/>
<text text-anchor="middle" x="260" y="-164.8" font-family="Times,serif" font-size="14.00">ProjectModule</text>
</g>
<!-- ProjectMemberModule&#45;&gt;ProjectModule -->
<g id="edge1" class="edge">
<title>ProjectMemberModule&#45;&gt;ProjectModule</title>
<path fill="none" stroke="black" d="M429,-122.11C429,-141.34 429,-169 429,-169 429,-169 319.79,-169 319.79,-169"/>
<polygon fill="black" stroke="black" points="319.79,-165.5 309.79,-169 319.79,-172.5 319.79,-165.5"/>
</g>
<!-- ProjectMilestoneModule -->
<g id="node2" class="node">
<title>ProjectMilestoneModule</title>
<polygon fill="#8dd3c7" stroke="black" points="337.69,-122 334.69,-126 313.69,-126 310.69,-122 182.31,-122 182.31,-86 337.69,-86 337.69,-122"/>
<text text-anchor="middle" x="260" y="-99.8" font-family="Times,serif" font-size="14.00">ProjectMilestoneModule</text>
</g>
<!-- ProjectMilestoneModule&#45;&gt;ProjectModule -->
<g id="edge2" class="edge">
<title>ProjectMilestoneModule&#45;&gt;ProjectModule</title>
<path fill="none" stroke="black" d="M260,-122.11C260,-122.11 260,-140.99 260,-140.99"/>
<polygon fill="black" stroke="black" points="256.5,-140.99 260,-150.99 263.5,-140.99 256.5,-140.99"/>
</g>
<!-- ProjectService  -->
<g id="node4" class="node">
<title>ProjectService </title>
<polygon fill="#fb8072" stroke="black" points="310.63,-252 209.37,-252 209.37,-216 310.63,-216 310.63,-252"/>
<text text-anchor="middle" x="260" y="-229.8" font-family="Times,serif" font-size="14.00">ProjectService </text>
</g>
<!-- ProjectModule&#45;&gt;ProjectService  -->
<g id="edge3" class="edge">
<title>ProjectModule&#45;&gt;ProjectService </title>
<path fill="none" stroke="black" stroke-dasharray="5,2" d="M260,-187.11C260,-187.11 260,-205.99 260,-205.99"/>
<polygon fill="black" stroke="black" points="256.5,-205.99 260,-215.99 263.5,-205.99 256.5,-205.99"/>
</g>
<!-- ProjectService -->
<g id="node5" class="node">
<title>ProjectService</title>
<ellipse fill="#fdb462" stroke="black" cx="91" cy="-104" rx="67.19" ry="18"/>
<text text-anchor="middle" x="91" y="-99.8" font-family="Times,serif" font-size="14.00">ProjectService</text>
</g>
<!-- ProjectService&#45;&gt;ProjectModule -->
<g id="edge4" class="edge">
<title>ProjectService&#45;&gt;ProjectModule</title>
<path fill="none" stroke="black" d="M91,-122.11C91,-141.34 91,-169 91,-169 91,-169 200.21,-169 200.21,-169"/>
<polygon fill="black" stroke="black" points="200.21,-172.5 210.21,-169 200.21,-165.5 200.21,-172.5"/>
</g>
</g>
</svg>
