<?xml version="1.0" encoding="UTF-8" standalone="no"?>
<!DOCTYPE svg PUBLIC "-//W3C//DTD SVG 1.1//EN"
 "http://www.w3.org/Graphics/SVG/1.1/DTD/svg11.dtd">
<!-- Generated by graphviz version 2.47.0 (20210316.0004)
 -->
<!-- Title: dependencies Pages: 1 -->
<svg width="504pt" height="284pt"
 viewBox="0.00 0.00 504.00 284.00" xmlns="http://www.w3.org/2000/svg" xmlns:xlink="http://www.w3.org/1999/xlink">
<g id="graph0" class="graph" transform="scale(1 1) rotate(0) translate(4 280)">
<title>dependencies</title>
<polygon fill="white" stroke="transparent" points="-4,4 -4,-280 500,-280 500,4 -4,4"/>
<text text-anchor="start" x="227.01" y="-42.4" font-family="Times-12" font-weight="bold" font-size="14.00">Legend</text>
<polygon fill="#ffffb3" stroke="transparent" points="14,-10 14,-30 34,-30 34,-10 14,-10"/>
<text text-anchor="start" x="37.63" y="-15.4" font-family="Times-12" font-size="14.00"> &#160;Declarations</text>
<polygon fill="#8dd3c7" stroke="transparent" points="127,-10 127,-30 147,-30 147,-10 127,-10"/>
<text text-anchor="start" x="150.73" y="-15.4" font-family="Times-12" font-size="14.00"> &#160;Module</text>
<polygon fill="#80b1d3" stroke="transparent" points="213,-10 213,-30 233,-30 233,-10 213,-10"/>
<text text-anchor="start" x="236.78" y="-15.4" font-family="Times-12" font-size="14.00"> &#160;Bootstrap</text>
<polygon fill="#fdb462" stroke="transparent" points="310,-10 310,-30 330,-30 330,-10 310,-10"/>
<text text-anchor="start" x="333.67" y="-15.4" font-family="Times-12" font-size="14.00"> &#160;Providers</text>
<polygon fill="#fb8072" stroke="transparent" points="406,-10 406,-30 426,-30 426,-10 406,-10"/>
<text text-anchor="start" x="429.73" y="-15.4" font-family="Times-12" font-size="14.00"> &#160;Exports</text>
<g id="clust1" class="cluster">
<title>cluster_ProjectMemberModule</title>
<polygon fill="none" stroke="black" stroke-dasharray="1,5" points="77,-70 77,-268 419,-268 419,-70 77,-70"/>
</g>
<g id="clust3" class="cluster">
<title>cluster_ProjectMemberModule_imports</title>
<polygon fill="none" stroke="black" points="309,-78 309,-130 411,-130 411,-78 309,-78"/>
</g>
<g id="clust4" class="cluster">
<title>cluster_ProjectMemberModule_exports</title>
<polygon fill="none" stroke="black" points="179,-208 179,-260 343,-260 343,-208 179,-208"/>
</g>
<g id="clust6" class="cluster">
<title>cluster_ProjectMemberModule_providers</title>
<polygon fill="none" stroke="black" points="85,-78 85,-130 301,-130 301,-78 85,-78"/>
</g>
<!-- UserModule -->
<g id="node1" class="node">
<title>UserModule</title>
<polygon fill="#8dd3c7" stroke="black" points="402.98,-122 399.98,-126 378.98,-126 375.98,-122 317.02,-122 317.02,-86 402.98,-86 402.98,-122"/>
<text text-anchor="middle" x="360" y="-99.8" font-family="Times,serif" font-size="14.00">UserModule</text>
</g>
<!-- ProjectMemberModule -->
<g id="node2" class="node">
<title>ProjectMemberModule</title>
<polygon fill="#8dd3c7" stroke="black" points="334.13,-187 331.13,-191 310.13,-191 307.13,-187 187.87,-187 187.87,-151 334.13,-151 334.13,-187"/>
<text text-anchor="middle" x="261" y="-164.8" font-family="Times,serif" font-size="14.00">ProjectMemberModule</text>
</g>
<!-- UserModule&#45;&gt;ProjectMemberModule -->
<g id="edge1" class="edge">
<title>UserModule&#45;&gt;ProjectMemberModule</title>
<path fill="none" stroke="black" d="M325.66,-122.11C325.66,-122.11 325.66,-140.99 325.66,-140.99"/>
<polygon fill="black" stroke="black" points="322.16,-140.99 325.66,-150.99 329.16,-140.99 322.16,-140.99"/>
</g>
<!-- ProjectMemberService  -->
<g id="node3" class="node">
<title>ProjectMemberService </title>
<polygon fill="#fb8072" stroke="black" points="335.06,-252 186.94,-252 186.94,-216 335.06,-216 335.06,-252"/>
<text text-anchor="middle" x="261" y="-229.8" font-family="Times,serif" font-size="14.00">ProjectMemberService </text>
</g>
<!-- ProjectMemberModule&#45;&gt;ProjectMemberService  -->
<g id="edge2" class="edge">
<title>ProjectMemberModule&#45;&gt;ProjectMemberService </title>
<path fill="none" stroke="black" stroke-dasharray="5,2" d="M261,-187.11C261,-187.11 261,-205.99 261,-205.99"/>
<polygon fill="black" stroke="black" points="257.5,-205.99 261,-215.99 264.5,-205.99 257.5,-205.99"/>
</g>
<!-- ProjectMemberService -->
<g id="node4" class="node">
<title>ProjectMemberService</title>
<ellipse fill="#fdb462" stroke="black" cx="193" cy="-104" rx="100.11" ry="18"/>
<text text-anchor="middle" x="193" y="-99.8" font-family="Times,serif" font-size="14.00">ProjectMemberService</text>
</g>
<!-- ProjectMemberService&#45;&gt;ProjectMemberModule -->
<g id="edge3" class="edge">
<title>ProjectMemberService&#45;&gt;ProjectMemberModule</title>
<path fill="none" stroke="black" d="M240.37,-120.07C240.37,-120.07 240.37,-140.82 240.37,-140.82"/>
<polygon fill="black" stroke="black" points="236.87,-140.82 240.37,-150.82 243.87,-140.82 236.87,-140.82"/>
</g>
</g>
</svg>
