<?xml version="1.0" encoding="UTF-8" standalone="no"?>
<!DOCTYPE svg PUBLIC "-//W3C//DTD SVG 1.1//EN"
 "http://www.w3.org/Graphics/SVG/1.1/DTD/svg11.dtd">
<!-- Generated by graphviz version 2.47.0 (20210316.0004)
 -->
<!-- Title: dependencies Pages: 1 -->
<svg width="504pt" height="284pt"
 viewBox="0.00 0.00 504.00 284.00" xmlns="http://www.w3.org/2000/svg" xmlns:xlink="http://www.w3.org/1999/xlink">
<g id="graph0" class="graph" transform="scale(1 1) rotate(0) translate(4 280)">
<title>dependencies</title>
<polygon fill="white" stroke="transparent" points="-4,4 -4,-280 500,-280 500,4 -4,4"/>
<text text-anchor="start" x="227.01" y="-42.4" font-family="Times-12" font-weight="bold" font-size="14.00">Legend</text>
<polygon fill="#ffffb3" stroke="transparent" points="14,-10 14,-30 34,-30 34,-10 14,-10"/>
<text text-anchor="start" x="37.63" y="-15.4" font-family="Times-12" font-size="14.00"> &#160;Declarations</text>
<polygon fill="#8dd3c7" stroke="transparent" points="127,-10 127,-30 147,-30 147,-10 127,-10"/>
<text text-anchor="start" x="150.73" y="-15.4" font-family="Times-12" font-size="14.00"> &#160;Module</text>
<polygon fill="#80b1d3" stroke="transparent" points="213,-10 213,-30 233,-30 233,-10 213,-10"/>
<text text-anchor="start" x="236.78" y="-15.4" font-family="Times-12" font-size="14.00"> &#160;Bootstrap</text>
<polygon fill="#fdb462" stroke="transparent" points="310,-10 310,-30 330,-30 330,-10 310,-10"/>
<text text-anchor="start" x="333.67" y="-15.4" font-family="Times-12" font-size="14.00"> &#160;Providers</text>
<polygon fill="#fb8072" stroke="transparent" points="406,-10 406,-30 426,-30 426,-10 406,-10"/>
<text text-anchor="start" x="429.73" y="-15.4" font-family="Times-12" font-size="14.00"> &#160;Exports</text>
<g id="clust1" class="cluster">
<title>cluster_ProjectMemberModule</title>
<polygon fill="none" stroke="black" stroke-dasharray="1,5" points="77,-70 77,-268 419,-268 419,-70 77,-70"/>
</g>
<g id="clust6" class="cluster">
<title>cluster_ProjectMemberModule_providers</title>
<polygon fill="none" stroke="black" points="195,-78 195,-130 411,-130 411,-78 195,-78"/>
</g>
<g id="clust4" class="cluster">
<title>cluster_ProjectMemberModule_exports</title>
<polygon fill="none" stroke="black" points="153,-208 153,-260 317,-260 317,-208 153,-208"/>
</g>
<g id="clust3" class="cluster">
<title>cluster_ProjectMemberModule_imports</title>
<polygon fill="none" stroke="black" points="85,-78 85,-130 187,-130 187,-78 85,-78"/>
</g>
<!-- UserModule -->
<g id="node1" class="node">
<title>UserModule</title>
<polygon fill="#8dd3c7" stroke="black" points="178.98,-122 175.98,-126 154.98,-126 151.98,-122 93.02,-122 93.02,-86 178.98,-86 178.98,-122"/>
<text text-anchor="middle" x="136" y="-99.8" font-family="Times,serif" font-size="14.00">UserModule</text>
</g>
<!-- ProjectMemberModule -->
<g id="node2" class="node">
<title>ProjectMemberModule</title>
<polygon fill="#8dd3c7" stroke="black" points="308.13,-187 305.13,-191 284.13,-191 281.13,-187 161.87,-187 161.87,-151 308.13,-151 308.13,-187"/>
<text text-anchor="middle" x="235" y="-164.8" font-family="Times,serif" font-size="14.00">ProjectMemberModule</text>
</g>
<!-- UserModule&#45;&gt;ProjectMemberModule -->
<g id="edge1" class="edge">
<title>UserModule&#45;&gt;ProjectMemberModule</title>
<path fill="none" stroke="black" d="M170.34,-122.11C170.34,-122.11 170.34,-140.99 170.34,-140.99"/>
<polygon fill="black" stroke="black" points="166.84,-140.99 170.34,-150.99 173.84,-140.99 166.84,-140.99"/>
</g>
<!-- ProjectMemberService  -->
<g id="node3" class="node">
<title>ProjectMemberService </title>
<polygon fill="#fb8072" stroke="black" points="309.06,-252 160.94,-252 160.94,-216 309.06,-216 309.06,-252"/>
<text text-anchor="middle" x="235" y="-229.8" font-family="Times,serif" font-size="14.00">ProjectMemberService </text>
</g>
<!-- ProjectMemberModule&#45;&gt;ProjectMemberService  -->
<g id="edge2" class="edge">
<title>ProjectMemberModule&#45;&gt;ProjectMemberService </title>
<path fill="none" stroke="black" stroke-dasharray="5,2" d="M235,-187.11C235,-187.11 235,-205.99 235,-205.99"/>
<polygon fill="black" stroke="black" points="231.5,-205.99 235,-215.99 238.5,-205.99 231.5,-205.99"/>
</g>
<!-- ProjectMemberService -->
<g id="node4" class="node">
<title>ProjectMemberService</title>
<ellipse fill="#fdb462" stroke="black" cx="303" cy="-104" rx="100.11" ry="18"/>
<text text-anchor="middle" x="303" y="-99.8" font-family="Times,serif" font-size="14.00">ProjectMemberService</text>
</g>
<!-- ProjectMemberService&#45;&gt;ProjectMemberModule -->
<g id="edge3" class="edge">
<title>ProjectMemberService&#45;&gt;ProjectMemberModule</title>
<path fill="none" stroke="black" d="M255.63,-120.07C255.63,-120.07 255.63,-140.82 255.63,-140.82"/>
<polygon fill="black" stroke="black" points="252.13,-140.82 255.63,-150.82 259.13,-140.82 252.13,-140.82"/>
</g>
</g>
</svg>
